<svg width="60" height="37" viewBox="0 0 60 37" fill="none" xmlns="http://www.w3.org/2000/svg">
<path d="M29.9983 36.0955C28.371 36.0955 26.8411 35.4605 25.6903 34.3111L1.78101 10.3991C-0.593671 8.02437 -0.593671 4.15908 1.78101 1.7844C2.9318 0.63361 4.46167 0 6.09037 0C7.71907 0 9.24894 0.63361 10.3984 1.7844L29.9983 21.387L49.5996 1.7844C50.7504 0.63361 52.2789 0 53.9076 0C55.5363 0 57.0648 0.63361 58.2156 1.7844C59.3677 2.93518 60 4.46505 60 6.0924C60 7.71975 59.3664 9.24962 58.2156 10.4004L34.3077 34.307C33.1555 35.4618 31.6243 36.0955 29.9983 36.0955ZM6.09037 2.70773C5.18599 2.70773 4.33576 3.05974 3.69538 3.69876C2.37536 5.01879 2.37536 7.16602 3.69538 8.48468L27.6047 32.3953C28.8719 33.6626 31.0665 33.6788 32.3486 32.4346L56.2985 8.48468C56.9389 7.84431 57.2896 6.99543 57.2896 6.09105C57.2896 5.18667 56.9375 4.33779 56.2985 3.69741C55.0191 2.41936 52.792 2.41936 51.5126 3.69741L29.9983 25.2158L8.48401 3.69876C7.84363 3.05974 6.99475 2.70773 6.09037 2.70773Z" fill="#8844EE"/>
</svg>
