<svg width="1440" height="959" viewBox="0 0 1440 959" fill="none" xmlns="http://www.w3.org/2000/svg">
<g opacity="0.2">
<path d="M1437.24 757.351C1438.5 773.671 1427.02 788.16 1411.61 789.706C1399.8 790.889 1389.13 784.14 1384.2 773.6L1370.21 774.833L1359.64 779.928C1357.23 781.09 1355.6 783.399 1355.23 786.05C1354.24 793.198 1352.43 800.083 1349.91 806.625C1349.05 808.842 1349.2 811.315 1350.37 813.382L1354.13 820.109L1364.59 827.129C1370.11 825.02 1376.53 825.526 1381.81 829.068C1390.76 835.076 1392.91 847.441 1386.25 856.143C1380.52 863.64 1369.86 865.7 1361.75 860.882C1356.59 857.817 1353.47 852.729 1352.7 847.291L1341.11 839.516L1333.81 838.625C1331.3 838.318 1328.81 839.181 1326.98 840.927C1320.83 846.792 1313.87 851.831 1306.31 855.865C1303.76 857.219 1302.13 859.82 1301.95 862.692L1301.03 877.473L1305.62 895.682C1313.43 897.863 1319.88 904.056 1322.01 912.48C1325.22 925.216 1317.3 938.137 1304.4 941.009C1292.77 943.603 1280.83 936.818 1277.13 925.479C1274.25 916.628 1276.9 907.477 1282.98 901.498L1278.37 883.182L1271.25 871.736C1269.34 868.664 1265.96 866.847 1262.34 866.854C1262.32 866.854 1262.31 866.854 1262.29 866.854C1256.05 866.854 1249.95 866.234 1244.05 865.072C1240.53 864.374 1236.91 865.486 1234.44 868.087L1225.03 878.015L1214.5 899.866C1216.97 904.876 1217.19 910.926 1214.58 916.35C1209.89 926.071 1197.93 929.934 1188.37 924.56C1180.19 919.949 1176.65 909.772 1180.21 901.077C1182.64 895.148 1187.68 891.185 1193.38 889.86L1203.98 867.866L1206.06 853.107C1206.44 850.384 1205.4 847.64 1203.26 845.916C1194.83 839.074 1187.6 830.814 1181.95 821.492C1180.55 819.176 1178.03 817.772 1175.32 817.75L1160.58 817.608L1144.44 822.682C1143.31 832.717 1136.44 841.632 1126.19 844.854C1112.42 849.187 1097.76 841.618 1093.29 827.935C1088.82 814.258 1096.37 799.299 1110.03 794.781C1119.59 791.616 1129.64 794.246 1136.44 800.71L1153.57 795.322L1166.07 786.407C1167.93 785.088 1168.92 782.879 1168.74 780.613C1168.53 778.097 1168.43 775.56 1168.43 772.994C1168.43 759.054 1171.49 745.819 1176.96 733.918C1177.76 732.171 1177.74 730.162 1176.9 728.437L1173.19 720.861L1163.14 713.271C1157.51 715.074 1151.13 714.212 1146.05 710.385C1137.44 703.885 1135.99 691.42 1143.12 683.103C1149.25 675.941 1160.01 674.473 1167.84 679.732C1172.83 683.082 1175.67 688.327 1176.12 693.801L1187.27 702.21L1198.5 704.213C1206.67 696.623 1216.2 690.472 1226.67 686.161L1229.31 670.14L1225.98 653.591C1216.13 651.054 1208.14 643.507 1205.98 633.444C1202.95 619.226 1212.72 605.378 1227.81 602.52C1242.9 599.662 1257.6 608.863 1260.63 623.081C1262.91 633.722 1258.01 644.148 1249.07 649.921L1252.22 665.529L1259.93 677.844C1260.44 678.649 1261.32 679.134 1262.27 679.134H1262.29C1279.96 679.134 1296.51 684.051 1310.64 692.589C1311.42 693.052 1312.37 693.117 1313.19 692.732L1325.28 687.13L1339.39 671.864C1338.54 666.391 1340.1 660.59 1344.16 656.207C1351.48 648.289 1364.03 648.089 1371.6 656.007C1378.23 662.956 1378.49 674.038 1372.19 681.293C1368.11 685.99 1362.26 688.156 1356.54 687.729L1342.43 702.994L1337.85 715.324C1337.53 716.179 1337.67 717.134 1338.21 717.875C1343.77 725.515 1348.21 734.024 1351.28 743.161C1352.13 745.67 1354.12 747.622 1356.67 748.342L1368.15 751.556L1383.06 750.238C1386.71 739.697 1395.84 731.723 1407.05 730.596C1422.47 729.05 1435.99 741.03 1437.24 757.351Z" fill="#8844EE"/>
<path d="M1262.29 842.495C1300.67 842.495 1331.79 811.378 1331.79 772.994C1331.79 734.61 1300.67 703.493 1262.29 703.493C1223.9 703.493 1192.78 734.61 1192.78 772.994C1192.78 811.378 1223.9 842.495 1262.29 842.495Z" fill="#B07DFB"/>
<path d="M1213.97 772.994C1213.97 738.21 1239.52 709.395 1272.88 704.295C1269.42 703.767 1265.89 703.493 1262.29 703.493C1223.9 703.493 1192.78 734.609 1192.78 772.994C1192.78 811.379 1223.9 842.495 1262.29 842.495C1265.89 842.495 1269.42 842.221 1272.88 841.693C1239.52 836.591 1213.97 807.777 1213.97 772.994Z" fill="#9E6BEA"/>
<path d="M1145.35 646.642C1156.28 646.642 1165.14 637.781 1165.14 626.85C1165.14 615.919 1156.28 607.058 1145.35 607.058C1134.42 607.058 1125.55 615.919 1125.55 626.85C1125.55 637.781 1134.42 646.642 1145.35 646.642Z" fill="#8844EE"/>
<path d="M1139.94 900.811C1147.16 900.811 1153.01 894.958 1153.01 887.738C1153.01 880.518 1147.16 874.665 1139.94 874.665C1132.72 874.665 1126.86 880.518 1126.86 887.738C1126.86 894.958 1132.72 900.811 1139.94 900.811Z" fill="#8844EE"/>
<path d="M1379.96 928.468C1390.59 928.468 1399.22 919.847 1399.22 909.212C1399.22 898.578 1390.59 889.957 1379.96 889.957C1369.33 889.957 1360.7 898.578 1360.7 909.212C1360.7 919.847 1369.33 928.468 1379.96 928.468Z" fill="#8844EE"/>
<path d="M1240.95 771.779C1250.87 771.779 1258.9 763.741 1258.9 753.827C1258.9 743.913 1250.87 735.875 1240.95 735.875C1231.04 735.875 1223 743.913 1223 753.827C1223 763.741 1231.04 771.779 1240.95 771.779Z" fill="#8844EE"/>
<path d="M1255.36 821.806C1262.11 821.806 1267.58 816.335 1267.58 809.587C1267.58 802.838 1262.11 797.368 1255.36 797.368C1248.61 797.368 1243.14 802.838 1243.14 809.587C1243.14 816.335 1248.61 821.806 1255.36 821.806Z" fill="#8844EE"/>
<path d="M1293.73 783.254C1299.4 783.254 1303.99 778.661 1303.99 772.994C1303.99 767.327 1299.4 762.733 1293.73 762.733C1288.06 762.733 1283.47 767.327 1283.47 772.994C1283.47 778.661 1288.06 783.254 1293.73 783.254Z" fill="#8844EE"/>
</g>
<g opacity="0.1">
<path d="M1173.93 234.427C1174.28 238.939 1171.1 242.945 1166.84 243.372C1163.58 243.699 1160.63 241.833 1159.26 238.919L1155.4 239.26L1152.48 240.669C1151.81 240.99 1151.36 241.629 1151.26 242.362C1150.98 244.338 1150.48 246.241 1149.79 248.05C1149.55 248.663 1149.59 249.346 1149.91 249.918L1150.95 251.778L1153.84 253.719C1155.37 253.135 1157.14 253.275 1158.6 254.255C1161.08 255.916 1161.67 259.334 1159.83 261.74C1158.25 263.813 1155.3 264.382 1153.06 263.05C1151.63 262.203 1150.77 260.796 1150.56 259.293L1147.35 257.143L1145.33 256.897C1144.64 256.812 1143.95 257.05 1143.45 257.533C1141.74 259.155 1139.82 260.548 1137.73 261.663C1137.03 262.037 1136.58 262.757 1136.53 263.551L1136.27 267.637L1137.54 272.671C1139.7 273.274 1141.48 274.987 1142.07 277.315C1142.96 280.836 1140.77 284.409 1137.2 285.203C1133.99 285.92 1130.69 284.044 1129.66 280.909C1128.87 278.462 1129.6 275.932 1131.28 274.279L1130.01 269.215L1128.04 266.051C1127.51 265.202 1126.58 264.699 1125.58 264.701C1125.57 264.701 1125.57 264.701 1125.56 264.701C1123.84 264.701 1122.15 264.53 1120.52 264.209C1119.55 264.016 1118.54 264.323 1117.86 265.042L1115.26 267.787L1112.35 273.828C1113.03 275.213 1113.09 276.886 1112.37 278.385C1111.07 281.073 1107.77 282.141 1105.13 280.655C1102.86 279.38 1101.88 276.567 1102.87 274.163C1103.54 272.524 1104.93 271.428 1106.51 271.062L1109.44 264.981L1110.02 260.901C1110.12 260.148 1109.83 259.389 1109.24 258.912C1106.91 257.021 1104.91 254.737 1103.35 252.16C1102.96 251.52 1102.26 251.132 1101.52 251.126L1097.44 251.086L1092.98 252.489C1092.67 255.263 1090.77 257.728 1087.93 258.619C1084.13 259.817 1080.07 257.724 1078.84 253.941C1077.6 250.16 1079.69 246.024 1083.47 244.775C1086.11 243.9 1088.89 244.627 1090.77 246.415L1095.5 244.925L1098.96 242.46C1099.47 242.096 1099.75 241.485 1099.7 240.858C1099.64 240.163 1099.61 239.461 1099.61 238.752C1099.61 234.898 1100.46 231.239 1101.97 227.948C1102.19 227.466 1102.19 226.91 1101.95 226.433L1100.93 224.339L1098.15 222.24C1096.59 222.739 1094.83 222.5 1093.43 221.442C1091.05 219.645 1090.64 216.199 1092.61 213.9C1094.31 211.92 1097.28 211.514 1099.45 212.968C1100.83 213.894 1101.61 215.344 1101.74 216.857L1104.82 219.182L1107.93 219.736C1110.19 217.638 1112.82 215.937 1115.71 214.745L1116.44 210.316L1115.52 205.741C1112.8 205.039 1110.59 202.953 1109.99 200.171C1109.15 196.24 1111.86 192.411 1116.03 191.621C1120.2 190.831 1124.26 193.375 1125.1 197.306C1125.73 200.247 1124.38 203.13 1121.91 204.726L1122.78 209.041L1124.91 212.446C1125.05 212.668 1125.29 212.802 1125.56 212.802H1125.56C1130.45 212.802 1135.02 214.162 1138.93 216.522C1139.14 216.651 1139.41 216.668 1139.63 216.562L1142.98 215.013L1146.88 210.793C1146.64 209.279 1147.07 207.676 1148.19 206.464C1150.22 204.275 1153.69 204.22 1155.78 206.409C1157.62 208.33 1157.69 211.394 1155.94 213.399C1154.82 214.698 1153.2 215.297 1151.62 215.179L1147.72 219.399L1146.45 222.808C1146.36 223.044 1146.4 223.308 1146.55 223.513C1148.09 225.625 1149.32 227.978 1150.16 230.504C1150.4 231.198 1150.95 231.737 1151.65 231.936L1154.83 232.825L1158.95 232.461C1159.96 229.546 1162.48 227.342 1165.58 227.03C1169.85 226.603 1173.58 229.915 1173.93 234.427Z" fill="#8844EE"/>
<path d="M1125.56 257.967C1136.17 257.967 1144.77 249.364 1144.77 238.752C1144.77 228.14 1136.17 219.537 1125.56 219.537C1114.95 219.537 1106.34 228.14 1106.34 238.752C1106.34 249.364 1114.95 257.967 1125.56 257.967Z" fill="#B07DFB"/>
<path d="M1112.2 238.752C1112.2 229.135 1119.27 221.168 1128.49 219.758C1127.53 219.612 1126.56 219.537 1125.56 219.537C1114.95 219.537 1106.34 228.14 1106.34 238.752C1106.34 249.364 1114.95 257.967 1125.56 257.967C1126.56 257.967 1127.53 257.891 1128.49 257.745C1119.27 256.335 1112.2 248.369 1112.2 238.752Z" fill="#9E6BEA"/>
<path d="M1093.23 203.82C1096.25 203.82 1098.7 201.37 1098.7 198.348C1098.7 195.326 1096.25 192.876 1093.23 192.876C1090.21 192.876 1087.76 195.326 1087.76 198.348C1087.76 201.37 1090.21 203.82 1093.23 203.82Z" fill="#8844EE"/>
<path d="M1091.73 274.089C1093.73 274.089 1095.35 272.471 1095.35 270.475C1095.35 268.479 1093.73 266.861 1091.73 266.861C1089.74 266.861 1088.12 268.479 1088.12 270.475C1088.12 272.471 1089.74 274.089 1091.73 274.089Z" fill="#8844EE"/>
<path d="M1158.09 281.736C1161.03 281.736 1163.42 279.352 1163.42 276.412C1163.42 273.472 1161.03 271.089 1158.09 271.089C1155.15 271.089 1152.77 273.472 1152.77 276.412C1152.77 279.352 1155.15 281.736 1158.09 281.736Z" fill="#8844EE"/>
<path d="M1119.66 238.416C1122.4 238.416 1124.62 236.194 1124.62 233.453C1124.62 230.712 1122.4 228.49 1119.66 228.49C1116.92 228.49 1114.7 230.712 1114.7 233.453C1114.7 236.194 1116.92 238.416 1119.66 238.416Z" fill="#8844EE"/>
<path d="M1123.65 252.247C1125.51 252.247 1127.02 250.734 1127.02 248.869C1127.02 247.003 1125.51 245.49 1123.65 245.49C1121.78 245.49 1120.27 247.003 1120.27 248.869C1120.27 250.734 1121.78 252.247 1123.65 252.247Z" fill="#8844EE"/>
<path d="M1134.25 241.589C1135.82 241.589 1137.09 240.319 1137.09 238.752C1137.09 237.185 1135.82 235.915 1134.25 235.915C1132.69 235.915 1131.42 237.185 1131.42 238.752C1131.42 240.319 1132.69 241.589 1134.25 241.589Z" fill="#8844EE"/>
<path d="M1175.4 234.313C1175.2 231.646 1173.99 229.262 1172.01 227.601C1170.15 226.046 1167.82 225.321 1165.44 225.56C1162.19 225.886 1159.33 228.01 1157.92 231.069L1154.97 231.329L1152.05 230.513C1151.83 230.449 1151.65 230.27 1151.57 230.033C1150.72 227.515 1149.51 225.137 1147.97 222.959L1149 220.187L1152.26 216.668C1154.11 216.606 1155.83 215.79 1157.06 214.368C1159.29 211.794 1159.2 207.849 1156.85 205.388C1155.56 204.037 1153.82 203.297 1151.96 203.316C1150.12 203.331 1148.36 204.113 1147.11 205.461C1145.89 206.781 1145.27 208.503 1145.34 210.275L1142.09 213.795L1139.36 215.06C1135.3 212.682 1130.68 211.397 1125.95 211.328L1124.17 208.485L1123.54 205.361C1126.05 203.312 1127.22 200.131 1126.55 196.997C1125.54 192.294 1120.7 189.231 1115.75 190.169C1113.26 190.641 1111.14 192.026 1109.79 194.069C1108.51 195.982 1108.08 198.259 1108.55 200.478C1109.18 203.438 1111.33 205.825 1114.25 206.891L1114.94 210.342L1114.39 213.707C1111.87 214.832 1109.55 216.325 1107.47 218.154L1105.43 217.79L1103.12 216.047C1102.79 214.294 1101.78 212.75 1100.27 211.74C1097.46 209.857 1093.69 210.372 1091.49 212.939C1090.28 214.358 1089.72 216.159 1089.92 218.01C1090.12 219.835 1091.07 221.516 1092.54 222.622C1094.05 223.765 1095.98 224.201 1097.82 223.846L1099.76 225.306L1100.63 227.082C1100.66 227.161 1100.66 227.251 1100.63 227.331C1098.97 230.93 1098.13 234.772 1098.13 238.752C1098.13 239.488 1098.16 240.237 1098.22 240.977C1098.23 241.091 1098.19 241.196 1098.1 241.256L1094.84 243.585L1091.11 244.758C1088.82 242.986 1085.79 242.451 1083 243.372C1082.94 243.39 1082.89 243.41 1082.83 243.431L1082.79 243.448C1082.02 243.724 1081.62 244.571 1081.9 245.339C1082.18 246.106 1083.02 246.505 1083.79 246.228L1083.86 246.203C1083.88 246.195 1083.91 246.186 1083.93 246.178C1085.96 245.505 1088.19 246.006 1089.75 247.484C1090.03 247.749 1090.39 247.891 1090.77 247.891C1090.92 247.891 1091.07 247.869 1091.21 247.823L1095.95 246.334C1096.09 246.287 1096.23 246.218 1096.36 246.127L1099.82 243.663C1100.75 243.003 1101.26 241.882 1101.17 240.737C1101.12 240.076 1101.09 239.408 1101.09 238.751C1101.09 235.202 1101.84 231.774 1103.31 228.565C1103.72 227.677 1103.71 226.663 1103.28 225.784L1102.26 223.69C1102.16 223.481 1102.01 223.3 1101.82 223.16L1099.04 221.061C1098.65 220.771 1098.15 220.687 1097.7 220.833C1096.54 221.203 1095.28 220.989 1094.32 220.262C1093.49 219.637 1092.97 218.724 1092.86 217.691C1092.74 216.659 1093.06 215.654 1093.74 214.861C1094.94 213.456 1097.09 213.163 1098.63 214.194C1099.57 214.831 1100.17 215.846 1100.27 216.981C1100.3 217.4 1100.51 217.784 1100.85 218.037L1103.93 220.362C1104.12 220.502 1104.33 220.596 1104.56 220.637L1107.67 221.19C1108.12 221.272 1108.59 221.134 1108.93 220.819C1111.09 218.812 1113.56 217.228 1116.28 216.111C1116.75 215.916 1117.09 215.49 1117.17 214.984L1117.9 210.555C1117.93 210.379 1117.93 210.199 1117.89 210.024L1116.97 205.45C1116.86 204.894 1116.44 204.452 1115.89 204.31C1113.61 203.722 1111.9 202.017 1111.44 199.861C1111.13 198.426 1111.42 196.95 1112.25 195.705C1113.16 194.33 1114.6 193.396 1116.3 193.073C1119.69 192.432 1122.99 194.469 1123.66 197.614C1124.14 199.867 1123.14 202.171 1121.11 203.485C1120.6 203.815 1120.34 204.423 1120.46 205.018L1121.33 209.333C1121.36 209.508 1121.43 209.675 1121.52 209.826L1123.66 213.231C1124.07 213.888 1124.78 214.281 1125.56 214.281H1125.56C1130.01 214.281 1134.37 215.493 1138.17 217.787C1138.8 218.171 1139.58 218.215 1140.26 217.903L1143.6 216.353C1143.77 216.272 1143.93 216.157 1144.06 216.016L1147.96 211.796C1148.27 211.465 1148.41 211.013 1148.34 210.567C1148.16 209.435 1148.51 208.305 1149.28 207.467C1149.99 206.705 1150.95 206.281 1151.99 206.272C1153.02 206.272 1153.99 206.674 1154.71 207.43C1156.02 208.8 1156.07 210.997 1154.83 212.431C1154.05 213.33 1152.92 213.794 1151.73 213.705C1151.28 213.671 1150.84 213.845 1150.54 214.176L1146.63 218.395C1146.5 218.537 1146.4 218.703 1146.33 218.883L1145.07 222.294C1144.81 222.994 1144.91 223.775 1145.36 224.383C1146.83 226.403 1147.97 228.62 1148.76 230.975C1149.16 232.14 1150.09 233.031 1151.26 233.359L1154.43 234.248C1154.6 234.297 1154.78 234.313 1154.96 234.297L1159.08 233.933C1159.66 233.882 1160.15 233.496 1160.35 232.946C1161.2 230.488 1163.31 228.744 1165.73 228.501C1167.31 228.342 1168.87 228.828 1170.11 229.867C1171.48 231.013 1172.31 232.673 1172.46 234.541C1172.55 235.775 1172.33 237.014 1171.81 238.125C1171.47 238.865 1171.79 239.744 1172.53 240.089C1173.27 240.433 1174.15 240.113 1174.49 239.373C1175.22 237.802 1175.54 236.053 1175.4 234.313Z" fill="black"/>
<path d="M1167.97 241.631C1167.55 241.767 1167.12 241.858 1166.69 241.901C1164.14 242.157 1161.75 240.741 1160.6 238.293C1160.34 237.73 1159.75 237.391 1159.13 237.447L1155.27 237.788C1155.09 237.804 1154.91 237.852 1154.75 237.929L1151.83 239.338C1150.73 239.871 1149.96 240.926 1149.79 242.157C1149.54 243.99 1149.07 245.794 1148.41 247.519C1148.01 248.549 1148.09 249.686 1148.62 250.64L1149.66 252.499C1149.77 252.702 1149.93 252.875 1150.13 253.005L1153.02 254.947C1153.42 255.214 1153.92 255.271 1154.37 255.1C1155.5 254.667 1156.78 254.81 1157.78 255.482C1158.64 256.061 1159.21 256.944 1159.38 257.969C1159.55 258.993 1159.29 260.013 1158.66 260.843C1157.53 262.313 1155.41 262.725 1153.81 261.779C1152.83 261.197 1152.18 260.216 1152.02 259.088C1151.96 258.672 1151.73 258.3 1151.38 258.066L1148.17 255.915C1147.98 255.786 1147.76 255.704 1147.53 255.676L1145.51 255.43C1144.38 255.293 1143.26 255.669 1142.43 256.463C1140.81 258.002 1139 259.313 1137.03 260.36C1135.89 260.968 1135.13 262.156 1135.05 263.458L1134.8 267.545C1134.79 267.698 1134.8 267.851 1134.84 267.999L1136.11 273.032C1136.24 273.546 1136.63 273.951 1137.14 274.094C1138.86 274.575 1140.2 275.948 1140.64 277.677C1140.97 278.993 1140.76 280.355 1140.05 281.511C1139.33 282.666 1138.21 283.465 1136.88 283.76C1134.41 284.312 1131.85 282.858 1131.07 280.451C1130.48 278.633 1130.96 276.672 1132.32 275.335C1132.69 274.967 1132.84 274.428 1132.71 273.919L1131.44 268.855C1131.4 268.707 1131.34 268.566 1131.26 268.436L1129.29 265.272C1128.5 263.989 1127.11 263.223 1125.56 263.223C1125.56 263.223 1125.56 263.223 1125.56 263.223C1123.96 263.223 1122.36 263.067 1120.8 262.759C1119.32 262.465 1117.82 262.939 1116.79 264.026L1114.19 266.771C1114.08 266.882 1113.99 267.008 1113.93 267.146L1111.02 273.187C1110.82 273.596 1110.82 274.074 1111.02 274.481C1111.53 275.518 1111.54 276.707 1111.04 277.744C1110.59 278.68 1109.79 279.367 1108.8 279.679C1107.81 279.991 1106.76 279.88 1105.85 279.367C1104.25 278.465 1103.54 276.426 1104.24 274.724C1104.7 273.589 1105.65 272.779 1106.84 272.502C1107.28 272.401 1107.65 272.107 1107.84 271.704L1110.77 265.624C1110.84 265.487 1110.88 265.34 1110.9 265.189L1111.48 261.107C1111.66 259.842 1111.16 258.562 1110.17 257.765C1107.96 255.969 1106.09 253.826 1104.61 251.395C1103.97 250.33 1102.79 249.66 1101.53 249.649L1097.45 249.61C1097.3 249.608 1097.14 249.631 1097 249.678L1092.53 251.081C1091.98 251.257 1091.58 251.745 1091.51 252.326C1091.25 254.606 1089.67 256.523 1087.49 257.211C1084.47 258.159 1081.22 256.487 1080.24 253.483C1079.85 252.289 1079.86 251.022 1080.28 249.818C1080.54 249.046 1080.13 248.205 1079.36 247.94C1078.59 247.674 1077.75 248.085 1077.48 248.856C1076.86 250.673 1076.84 252.59 1077.43 254.401C1078.63 258.076 1082.08 260.431 1085.77 260.431C1086.63 260.431 1087.51 260.302 1088.38 260.03C1091.36 259.09 1093.59 256.635 1094.28 253.629L1097.66 252.566L1101.5 252.603C1101.74 252.605 1101.97 252.729 1102.09 252.925C1103.74 255.648 1105.83 258.048 1108.31 260.059C1108.49 260.207 1108.59 260.451 1108.55 260.694L1108.01 264.548L1105.46 269.831C1103.68 270.462 1102.23 271.831 1101.5 273.603C1100.23 276.71 1101.47 280.296 1104.4 281.943C1106.03 282.86 1107.91 283.057 1109.69 282.498C1111.44 281.947 1112.9 280.682 1113.7 279.027C1114.49 277.393 1114.58 275.551 1113.97 273.869L1116.49 268.636L1118.93 266.058C1119.26 265.712 1119.75 265.562 1120.23 265.658C1121.98 266.003 1123.77 266.178 1125.58 266.178H1125.58C1126.08 266.178 1126.53 266.422 1126.78 266.832L1128.63 269.801L1129.66 273.873C1127.95 275.958 1127.41 278.755 1128.26 281.366C1129.33 284.657 1132.48 286.831 1135.84 286.831C1136.4 286.831 1136.96 286.771 1137.53 286.645C1139.64 286.175 1141.43 284.902 1142.56 283.062C1143.7 281.22 1144.03 279.052 1143.5 276.955C1142.88 274.489 1141.11 272.478 1138.78 271.534L1137.76 267.5L1138 263.643C1138.02 263.356 1138.18 263.097 1138.43 262.968C1140.62 261.795 1142.66 260.327 1144.47 258.602C1144.66 258.421 1144.91 258.335 1145.16 258.364L1146.82 258.567L1149.22 260.179C1149.65 261.911 1150.75 263.397 1152.31 264.321C1155.21 266.046 1158.95 265.323 1161.01 262.638C1162.14 261.154 1162.6 259.325 1162.3 257.488C1162 255.676 1160.95 254.051 1159.43 253.028C1157.85 251.971 1155.9 251.642 1154.08 252.098L1152.07 250.748L1151.2 249.197C1151.1 249.013 1151.08 248.788 1151.16 248.582C1151.91 246.646 1152.43 244.623 1152.72 242.567C1152.75 242.315 1152.9 242.104 1153.12 242L1155.8 240.709L1158.42 240.477C1160.25 243.5 1163.51 245.192 1166.99 244.843C1167.63 244.778 1168.27 244.642 1168.89 244.439C1169.67 244.184 1170.09 243.348 1169.83 242.573C1169.58 241.797 1168.74 241.376 1167.97 241.631Z" fill="black"/>
<path d="M1130.31 218.608C1128.76 218.244 1127.16 218.06 1125.56 218.06C1114.15 218.06 1104.87 227.342 1104.87 238.752C1104.87 250.162 1114.15 259.444 1125.56 259.444C1136.97 259.444 1146.25 250.162 1146.25 238.752C1146.25 231.618 1142.65 225.078 1136.61 221.257C1135.92 220.821 1135.01 221.026 1134.57 221.715C1134.14 222.405 1134.34 223.318 1135.03 223.755C1140.21 227.03 1143.3 232.637 1143.3 238.752C1143.3 248.532 1135.34 256.488 1125.56 256.488C1115.78 256.488 1107.82 248.532 1107.82 238.752C1107.82 228.972 1115.78 221.015 1125.56 221.015C1126.93 221.015 1128.3 221.174 1129.63 221.486C1130.43 221.673 1131.22 221.179 1131.41 220.385C1131.59 219.59 1131.1 218.795 1130.31 218.608Z" fill="black"/>
<path d="M1093.23 205.297C1097.06 205.297 1100.18 202.18 1100.18 198.348C1100.18 194.515 1097.06 191.398 1093.23 191.398C1089.4 191.398 1086.28 194.516 1086.28 198.348C1086.28 202.18 1089.4 205.297 1093.23 205.297ZM1093.23 194.354C1095.43 194.354 1097.22 196.146 1097.22 198.348C1097.22 200.55 1095.43 202.342 1093.23 202.342C1091.03 202.342 1089.24 200.55 1089.24 198.348C1089.24 196.146 1091.03 194.354 1093.23 194.354Z" fill="black"/>
<path d="M1091.73 265.383C1088.93 265.383 1086.64 267.667 1086.64 270.475C1086.64 273.283 1088.93 275.567 1091.73 275.567C1094.54 275.567 1096.83 273.283 1096.83 270.475C1096.83 267.667 1094.54 265.383 1091.73 265.383ZM1091.73 272.611C1090.56 272.611 1089.6 271.653 1089.6 270.475C1089.6 269.297 1090.56 268.338 1091.73 268.338C1092.91 268.338 1093.87 269.297 1093.87 270.475C1093.87 271.653 1092.91 272.611 1091.73 272.611Z" fill="black"/>
<path d="M1158.09 269.611C1154.34 269.611 1151.29 272.662 1151.29 276.412C1151.29 280.162 1154.34 283.213 1158.09 283.213C1161.84 283.213 1164.89 280.162 1164.89 276.412C1164.89 272.662 1161.84 269.611 1158.09 269.611ZM1158.09 280.258C1155.97 280.258 1154.25 278.533 1154.25 276.412C1154.25 274.291 1155.97 272.566 1158.09 272.566C1160.21 272.566 1161.94 274.291 1161.94 276.412C1161.94 278.533 1160.21 280.258 1158.09 280.258Z" fill="black"/>
<path d="M1126.1 233.453C1126.1 229.901 1123.21 227.012 1119.66 227.012C1116.11 227.012 1113.22 229.901 1113.22 233.453C1113.22 237.005 1116.11 239.894 1119.66 239.894C1123.21 239.894 1126.1 237.004 1126.1 233.453ZM1119.66 236.938C1117.74 236.938 1116.18 235.375 1116.18 233.453C1116.18 231.531 1117.74 229.968 1119.66 229.968C1121.58 229.968 1123.15 231.531 1123.15 233.453C1123.15 235.375 1121.58 236.938 1119.66 236.938Z" fill="black"/>
<path d="M1123.65 253.724C1126.32 253.724 1128.5 251.546 1128.5 248.868C1128.5 246.191 1126.32 244.012 1123.65 244.012C1120.97 244.012 1118.79 246.191 1118.79 248.868C1118.79 251.546 1120.97 253.724 1123.65 253.724ZM1123.65 246.968C1124.69 246.968 1125.55 247.821 1125.55 248.869C1125.55 249.916 1124.69 250.769 1123.65 250.769C1122.6 250.769 1121.75 249.916 1121.75 248.869C1121.75 247.821 1122.6 246.968 1123.65 246.968Z" fill="black"/>
<path d="M1129.94 238.752C1129.94 241.131 1131.87 243.066 1134.25 243.066C1136.63 243.066 1138.57 241.131 1138.57 238.752C1138.57 236.373 1136.63 234.437 1134.25 234.437C1131.87 234.437 1129.94 236.373 1129.94 238.752ZM1134.25 237.393C1135 237.393 1135.61 238.002 1135.61 238.752C1135.61 239.501 1135 240.111 1134.25 240.111C1133.5 240.111 1132.89 239.501 1132.89 238.752C1132.89 238.002 1133.5 237.393 1134.25 237.393Z" fill="black"/>
</g>
<g opacity="0.1">
<path d="M267.793 793.656C268.072 797.277 265.525 800.492 262.105 800.835C259.486 801.097 257.117 799.6 256.023 797.261L252.919 797.535L250.575 798.665C250.039 798.923 249.678 799.435 249.596 800.024C249.375 801.61 248.973 803.137 248.415 804.589C248.225 805.081 248.258 805.63 248.516 806.088L249.351 807.581L251.672 809.139C252.896 808.67 254.321 808.783 255.493 809.569C257.479 810.902 257.955 813.645 256.478 815.576C255.207 817.24 252.843 817.697 251.043 816.628C249.897 815.948 249.204 814.819 249.035 813.612L246.462 811.887L244.843 811.689C244.286 811.621 243.733 811.813 243.328 812.2C241.961 813.501 240.418 814.619 238.74 815.514C238.176 815.815 237.814 816.392 237.774 817.029L237.569 820.309L238.587 824.349C240.32 824.833 241.753 826.207 242.224 828.077C242.936 830.902 241.18 833.769 238.318 834.407C235.736 834.982 233.087 833.477 232.266 830.961C231.627 828.997 232.214 826.966 233.565 825.64L232.541 821.576L230.962 819.036C230.538 818.355 229.788 817.951 228.985 817.953C228.98 817.953 228.977 817.953 228.972 817.953C227.589 817.953 226.235 817.815 224.926 817.558C224.146 817.403 223.341 817.649 222.794 818.226L220.707 820.429L218.37 825.278C218.917 826.389 218.966 827.732 218.387 828.935C217.346 831.092 214.693 831.949 212.572 830.757C210.757 829.734 209.971 827.476 210.762 825.546C211.301 824.231 212.419 823.352 213.684 823.057L216.035 818.177L216.497 814.902C216.581 814.298 216.35 813.69 215.876 813.307C214.005 811.789 212.402 809.956 211.148 807.888C210.836 807.374 210.276 807.062 209.675 807.057L206.405 807.026L202.825 808.152C202.574 810.378 201.049 812.357 198.775 813.071C195.72 814.033 192.466 812.353 191.474 809.317C190.483 806.283 192.157 802.963 195.189 801.961C197.311 801.259 199.541 801.842 201.049 803.277L204.849 802.081L207.624 800.103C208.037 799.81 208.257 799.32 208.216 798.817C208.17 798.259 208.146 797.696 208.146 797.127C208.146 794.034 208.826 791.097 210.041 788.456C210.218 788.069 210.213 787.623 210.026 787.24L209.204 785.559L206.973 783.875C205.724 784.275 204.308 784.084 203.182 783.235C201.272 781.792 200.95 779.027 202.531 777.181C203.892 775.592 206.279 775.266 208.017 776.433C209.123 777.177 209.753 778.34 209.854 779.555L212.327 781.421L214.819 781.865C216.633 780.181 218.747 778.816 221.07 777.86L221.656 774.305L220.917 770.633C218.732 770.07 216.957 768.395 216.48 766.163C215.806 763.008 217.974 759.935 221.323 759.301C224.671 758.667 227.932 760.709 228.606 763.863C229.11 766.224 228.024 768.538 226.041 769.819L226.738 773.282L228.451 776.014C228.563 776.193 228.759 776.301 228.969 776.301H228.972C232.894 776.301 236.566 777.392 239.702 779.286C239.874 779.389 240.086 779.403 240.268 779.318L242.95 778.075L246.081 774.688C245.893 773.473 246.239 772.186 247.139 771.213C248.764 769.456 251.548 769.412 253.227 771.169C254.699 772.711 254.756 775.17 253.358 776.78C252.454 777.822 251.155 778.302 249.887 778.208L246.756 781.595L245.739 784.331C245.668 784.52 245.7 784.732 245.818 784.897C247.053 786.592 248.039 788.48 248.719 790.507C248.907 791.064 249.349 791.497 249.916 791.657L252.462 792.37L255.77 792.077C256.581 789.739 258.607 787.969 261.094 787.719C264.514 787.376 267.514 790.034 267.793 793.656Z" fill="#8844EE"/>
<path d="M228.972 812.548C237.489 812.548 244.394 805.644 244.394 797.127C244.394 788.61 237.489 781.706 228.972 781.706C220.456 781.706 213.551 788.61 213.551 797.127C213.551 805.644 220.456 812.548 228.972 812.548Z" fill="#B07DFB"/>
<path d="M218.252 797.127C218.252 789.409 223.922 783.014 231.323 781.882C230.557 781.765 229.771 781.706 228.972 781.706C220.455 781.706 213.551 788.61 213.551 797.127C213.551 805.644 220.455 812.548 228.972 812.548C229.771 812.548 230.556 812.487 231.322 812.37C223.921 811.238 218.252 804.845 218.252 797.127Z" fill="#9E6BEA"/>
<path d="M203.025 769.091C205.451 769.091 207.417 767.125 207.417 764.7C207.417 762.274 205.451 760.308 203.025 760.308C200.6 760.308 198.634 762.274 198.634 764.7C198.634 767.125 200.6 769.091 203.025 769.091Z" fill="#8844EE"/>
<path d="M201.825 825.487C203.427 825.487 204.725 824.189 204.725 822.587C204.725 820.985 203.427 819.686 201.825 819.686C200.223 819.686 198.924 820.985 198.924 822.587C198.924 824.189 200.223 825.487 201.825 825.487Z" fill="#8844EE"/>
<path d="M255.083 831.624C257.442 831.624 259.355 829.711 259.355 827.352C259.355 824.992 257.442 823.079 255.083 823.079C252.723 823.079 250.81 824.992 250.81 827.352C250.81 829.711 252.723 831.624 255.083 831.624Z" fill="#8844EE"/>
<path d="M224.239 796.857C226.439 796.857 228.222 795.074 228.222 792.874C228.222 790.674 226.439 788.891 224.239 788.891C222.039 788.891 220.256 790.674 220.256 792.874C220.256 795.074 222.039 796.857 224.239 796.857Z" fill="#8844EE"/>
<path d="M227.436 807.957C228.934 807.957 230.147 806.743 230.147 805.246C230.147 803.749 228.934 802.535 227.436 802.535C225.939 802.535 224.725 803.749 224.725 805.246C224.725 806.743 225.939 807.957 227.436 807.957Z" fill="#8844EE"/>
<path d="M235.95 799.403C237.207 799.403 238.226 798.384 238.226 797.127C238.226 795.869 237.207 794.85 235.95 794.85C234.692 794.85 233.673 795.869 233.673 797.127C233.673 798.384 234.692 799.403 235.95 799.403Z" fill="#8844EE"/>
<path d="M268.976 793.565C268.811 791.423 267.843 789.51 266.251 788.177C264.76 786.929 262.887 786.348 260.976 786.539C258.37 786.801 256.074 788.506 254.943 790.96L252.574 791.169L250.236 790.514C250.054 790.463 249.908 790.319 249.844 790.129C249.164 788.108 248.195 786.2 246.959 784.451L247.787 782.227L250.398 779.403C251.883 779.353 253.264 778.698 254.255 777.557C256.047 775.491 255.972 772.325 254.085 770.35C253.049 769.266 251.654 768.671 250.161 768.687C248.687 768.699 247.269 769.326 246.269 770.408C245.289 771.468 244.787 772.85 244.85 774.272L242.238 777.097L240.05 778.112C236.786 776.204 233.08 775.172 229.289 775.117L227.858 772.835L227.353 770.328C229.364 768.684 230.303 766.131 229.766 763.616C228.96 759.841 225.073 757.383 221.102 758.136C219.103 758.515 217.402 759.626 216.313 761.265C215.292 762.801 214.94 764.628 215.321 766.41C215.828 768.785 217.55 770.701 219.892 771.556L220.45 774.326L220.006 777.026C217.987 777.93 216.124 779.127 214.455 780.595L212.815 780.303L210.962 778.905C210.697 777.497 209.884 776.258 208.677 775.448C206.424 773.936 203.395 774.35 201.63 776.41C200.655 777.549 200.206 778.994 200.368 780.48C200.527 781.945 201.292 783.294 202.468 784.181C203.684 785.098 205.231 785.448 206.711 785.164L208.264 786.335L208.961 787.761C208.992 787.824 208.992 787.897 208.963 787.96C207.635 790.849 206.961 793.933 206.961 797.127C206.961 797.718 206.986 798.319 207.034 798.912C207.041 799.004 207.005 799.088 206.937 799.137L204.314 801.005L201.321 801.947C199.483 800.525 197.052 800.095 194.815 800.835C194.771 800.849 194.727 800.865 194.683 800.882L194.646 800.895C194.029 801.117 193.71 801.797 193.932 802.413C194.153 803.029 194.833 803.349 195.449 803.127L195.505 803.107C195.524 803.1 195.542 803.093 195.561 803.087C197.194 802.547 198.984 802.948 200.233 804.135C200.456 804.348 200.75 804.462 201.05 804.462C201.169 804.462 201.289 804.444 201.406 804.407L205.205 803.212C205.324 803.174 205.436 803.118 205.538 803.046L208.313 801.068C209.057 800.538 209.473 799.638 209.398 798.72C209.355 798.19 209.333 797.654 209.333 797.126C209.333 794.277 209.934 791.527 211.118 788.951C211.446 788.238 211.437 787.425 211.092 786.719L210.271 785.039C210.189 784.871 210.068 784.725 209.92 784.613L207.687 782.928C207.379 782.696 206.978 782.628 206.611 782.746C205.685 783.042 204.67 782.871 203.897 782.287C203.232 781.786 202.816 781.053 202.726 780.224C202.636 779.396 202.887 778.589 203.432 777.953C204.398 776.825 206.122 776.59 207.356 777.418C208.117 777.928 208.597 778.743 208.673 779.654C208.701 779.99 208.871 780.299 209.141 780.502L211.614 782.368C211.763 782.48 211.936 782.556 212.12 782.588L214.611 783.032C214.978 783.098 215.353 782.987 215.626 782.734C217.362 781.123 219.346 779.852 221.523 778.956C221.904 778.8 222.176 778.457 222.242 778.052L222.826 774.497C222.849 774.355 222.846 774.211 222.818 774.071L222.08 770.4C221.99 769.954 221.653 769.598 221.213 769.485C219.379 769.013 218.01 767.644 217.641 765.914C217.395 764.763 217.625 763.578 218.289 762.578C219.022 761.475 220.178 760.725 221.545 760.466C224.26 759.952 226.908 761.587 227.447 764.111C227.833 765.919 227.028 767.768 225.398 768.823C224.989 769.087 224.783 769.575 224.879 770.053L225.576 773.516C225.604 773.656 225.658 773.79 225.734 773.912L227.447 776.644C227.778 777.172 228.347 777.487 228.972 777.487H228.973C232.543 777.487 236.041 778.46 239.09 780.301C239.601 780.609 240.228 780.644 240.768 780.394L243.449 779.15C243.59 779.085 243.716 778.993 243.821 778.879L246.952 775.493C247.198 775.227 247.309 774.864 247.253 774.506C247.113 773.598 247.389 772.691 248.011 772.019C248.576 771.407 249.347 771.066 250.181 771.059C251.011 771.059 251.791 771.382 252.37 771.989C253.421 773.088 253.462 774.851 252.463 776.002C251.837 776.724 250.931 777.097 249.977 777.025C249.616 776.998 249.263 777.137 249.017 777.403L245.886 780.789C245.781 780.903 245.699 781.036 245.645 781.181L244.627 783.918C244.418 784.48 244.505 785.107 244.86 785.595C246.04 787.216 246.96 788.995 247.596 790.885C247.91 791.82 248.658 792.536 249.596 792.799L252.143 793.512C252.281 793.551 252.424 793.564 252.567 793.552L255.874 793.26C256.339 793.218 256.737 792.908 256.89 792.467C257.575 790.495 259.272 789.094 261.213 788.9C262.483 788.772 263.732 789.162 264.729 789.996C265.827 790.916 266.496 792.248 266.612 793.747C266.688 794.738 266.509 795.732 266.094 796.624C265.817 797.217 266.074 797.923 266.668 798.199C267.263 798.476 267.968 798.219 268.244 797.625C268.83 796.364 269.083 794.961 268.976 793.565Z" fill="black"/>
<path d="M263.007 799.437C262.674 799.547 262.331 799.62 261.986 799.654C259.934 799.86 258.015 798.723 257.097 796.758C256.886 796.307 256.415 796.035 255.918 796.079L252.814 796.353C252.671 796.366 252.532 796.404 252.403 796.466L250.059 797.597C249.172 798.025 248.559 798.871 248.421 799.86C248.215 801.331 247.841 802.779 247.308 804.163C246.99 804.989 247.052 805.902 247.481 806.667L248.315 808.16C248.406 808.323 248.534 808.462 248.69 808.566L251.012 810.124C251.332 810.339 251.737 810.384 252.097 810.247C253.005 809.899 254.027 810.014 254.832 810.554C255.524 811.018 255.98 811.727 256.115 812.55C256.251 813.371 256.045 814.191 255.536 814.856C254.634 816.036 252.926 816.366 251.648 815.608C250.86 815.14 250.335 814.353 250.209 813.448C250.162 813.114 249.975 812.815 249.695 812.627L247.122 810.902C246.967 810.797 246.79 810.732 246.605 810.709L244.986 810.512C244.08 810.402 243.177 810.704 242.509 811.341C241.212 812.576 239.756 813.629 238.181 814.469C237.265 814.957 236.656 815.91 236.59 816.955L236.385 820.235C236.377 820.358 236.388 820.48 236.418 820.599L237.436 824.639C237.54 825.051 237.857 825.377 238.267 825.491C239.648 825.878 240.723 826.979 241.073 828.367C241.339 829.423 241.171 830.516 240.599 831.443C240.027 832.371 239.126 833.012 238.06 833.249C236.073 833.692 234.023 832.525 233.394 830.593C232.919 829.134 233.303 827.56 234.396 826.487C234.696 826.192 234.818 825.759 234.715 825.351L233.691 821.287C233.661 821.168 233.613 821.054 233.548 820.95L231.969 818.411C231.329 817.381 230.214 816.767 228.974 816.767C228.974 816.767 228.973 816.767 228.972 816.767C227.689 816.767 226.405 816.641 225.156 816.394C223.964 816.158 222.759 816.538 221.933 817.411L219.845 819.614C219.761 819.703 219.691 819.804 219.637 819.915L217.3 824.763C217.142 825.092 217.144 825.475 217.305 825.802C217.714 826.634 217.719 827.588 217.318 828.42C216.956 829.172 216.318 829.723 215.522 829.974C214.726 830.224 213.885 830.135 213.154 829.723C211.868 828.999 211.299 827.362 211.859 825.997C212.232 825.086 212.995 824.436 213.952 824.213C214.302 824.132 214.596 823.897 214.752 823.573L217.104 818.694C217.157 818.583 217.193 818.465 217.21 818.344L217.671 815.068C217.813 814.053 217.412 813.026 216.623 812.386C214.845 810.944 213.345 809.224 212.162 807.273C211.644 806.419 210.695 805.882 209.686 805.872L206.415 805.841C206.291 805.839 206.167 805.858 206.048 805.895L202.468 807.022C202.02 807.163 201.698 807.554 201.645 808.021C201.439 809.85 200.172 811.389 198.418 811.941C195.998 812.703 193.388 811.361 192.601 808.95C192.287 807.991 192.298 806.974 192.63 806.008C192.843 805.389 192.514 804.714 191.895 804.501C191.275 804.287 190.6 804.617 190.387 805.236C189.885 806.694 189.871 808.233 190.346 809.686C191.309 812.636 194.079 814.526 197.039 814.526C197.732 814.526 198.436 814.422 199.13 814.204C201.525 813.45 203.318 811.479 203.87 809.067L206.581 808.214L209.664 808.243C209.858 808.245 210.039 808.344 210.134 808.502C211.458 810.687 213.139 812.613 215.129 814.227C215.276 814.346 215.35 814.541 215.322 814.737L214.887 817.83L212.844 822.07C211.413 822.576 210.248 823.675 209.665 825.097C208.642 827.591 209.643 830.469 211.992 831.79C213.3 832.526 214.806 832.685 216.233 832.236C217.641 831.794 218.815 830.778 219.455 829.45C220.087 828.139 220.158 826.66 219.67 825.311L221.695 821.111L223.655 819.042C223.919 818.764 224.308 818.643 224.696 818.72C226.097 818.997 227.536 819.138 228.986 819.138H228.987C229.389 819.138 229.751 819.334 229.955 819.663L231.437 822.045L232.26 825.314C230.889 826.987 230.457 829.232 231.139 831.328C232 833.969 234.523 835.714 237.221 835.713C237.67 835.713 238.124 835.665 238.576 835.565C240.272 835.187 241.708 834.165 242.619 832.688C243.53 831.211 243.798 829.47 243.373 827.787C242.875 825.808 241.451 824.195 239.58 823.437L238.764 820.199L238.958 817.103C238.972 816.873 239.103 816.666 239.298 816.562C241.062 815.621 242.693 814.442 244.146 813.058C244.299 812.913 244.501 812.843 244.7 812.867L246.037 813.03L247.965 814.323C248.308 815.714 249.188 816.906 250.438 817.648C252.771 819.032 255.773 818.452 257.42 816.297C258.331 815.106 258.699 813.638 258.456 812.164C258.216 810.71 257.377 809.405 256.153 808.584C254.888 807.736 253.325 807.472 251.863 807.838L250.247 806.754L249.551 805.51C249.468 805.362 249.458 805.182 249.522 805.016C250.12 803.463 250.54 801.838 250.77 800.188C250.798 799.987 250.918 799.817 251.09 799.734L253.238 798.697L255.348 798.511C256.813 800.937 259.429 802.295 262.223 802.015C262.739 801.963 263.252 801.854 263.749 801.691C264.371 801.486 264.709 800.816 264.504 800.193C264.299 799.571 263.629 799.233 263.007 799.437Z" fill="black"/>
<path d="M232.783 780.96C231.539 780.668 230.257 780.52 228.972 780.52C219.816 780.52 212.366 787.97 212.366 797.127C212.366 806.284 219.815 813.733 228.972 813.733C238.129 813.733 245.579 806.284 245.579 797.127C245.579 791.401 242.687 786.153 237.843 783.086C237.289 782.736 236.557 782.9 236.206 783.454C235.856 784.007 236.021 784.74 236.574 785.09C240.728 787.719 243.207 792.219 243.207 797.127C243.207 804.976 236.822 811.361 228.972 811.361C221.123 811.361 214.738 804.976 214.738 797.127C214.738 789.278 221.123 782.892 228.972 782.892C230.075 782.892 231.175 783.019 232.241 783.269C232.878 783.419 233.517 783.024 233.666 782.386C233.816 781.748 233.42 781.11 232.783 780.96Z" fill="black"/>
<path d="M203.025 770.277C206.101 770.277 208.603 767.775 208.603 764.7C208.603 761.624 206.101 759.122 203.025 759.122C199.95 759.122 197.448 761.624 197.448 764.7C197.448 767.775 199.95 770.277 203.025 770.277ZM203.025 761.494C204.793 761.494 206.231 762.932 206.231 764.7C206.231 766.467 204.793 767.905 203.025 767.905C201.258 767.905 199.82 766.467 199.82 764.7C199.82 762.932 201.258 761.494 203.025 761.494Z" fill="black"/>
<path d="M201.825 818.5C199.572 818.5 197.738 820.333 197.738 822.586C197.738 824.84 199.571 826.673 201.825 826.673C204.078 826.673 205.912 824.84 205.912 822.586C205.912 820.333 204.078 818.5 201.825 818.5ZM201.825 824.301C200.879 824.301 200.11 823.532 200.11 822.586C200.11 821.641 200.879 820.872 201.825 820.872C202.77 820.872 203.54 821.641 203.54 822.586C203.54 823.532 202.77 824.301 201.825 824.301Z" fill="black"/>
<path d="M255.083 821.893C252.073 821.893 249.624 824.342 249.624 827.352C249.624 830.361 252.073 832.81 255.083 832.81C258.093 832.81 260.541 830.361 260.541 827.352C260.541 824.342 258.092 821.893 255.083 821.893ZM255.083 830.438C253.381 830.438 251.996 829.053 251.996 827.351C251.996 825.649 253.381 824.265 255.083 824.265C256.785 824.265 258.169 825.649 258.169 827.351C258.169 829.053 256.784 830.438 255.083 830.438Z" fill="black"/>
<path d="M229.408 792.874C229.408 790.024 227.089 787.705 224.239 787.705C221.389 787.705 219.07 790.024 219.07 792.874C219.07 795.724 221.389 798.043 224.239 798.043C227.089 798.043 229.408 795.724 229.408 792.874ZM224.239 795.671C222.696 795.671 221.442 794.416 221.442 792.874C221.442 791.332 222.696 790.077 224.239 790.077C225.781 790.077 227.036 791.332 227.036 792.874C227.036 794.416 225.781 795.671 224.239 795.671Z" fill="black"/>
<path d="M227.436 809.143C229.585 809.143 231.334 807.395 231.334 805.246C231.334 803.097 229.585 801.349 227.436 801.349C225.288 801.349 223.539 803.097 223.539 805.246C223.539 807.395 225.287 809.143 227.436 809.143ZM227.436 803.721C228.277 803.721 228.962 804.405 228.962 805.246C228.962 806.087 228.277 806.771 227.436 806.771C226.595 806.771 225.911 806.087 225.911 805.246C225.911 804.405 226.595 803.721 227.436 803.721Z" fill="black"/>
<path d="M232.487 797.127C232.487 799.036 234.04 800.589 235.95 800.589C237.859 800.589 239.412 799.036 239.412 797.127C239.412 795.217 237.859 793.664 235.95 793.664C234.04 793.664 232.487 795.217 232.487 797.127ZM235.95 796.036C236.551 796.036 237.04 796.525 237.04 797.127C237.04 797.728 236.551 798.217 235.95 798.217C235.348 798.217 234.859 797.728 234.859 797.127C234.859 796.525 235.348 796.036 235.95 796.036Z" fill="black"/>
</g>
<g opacity="0.1">
<path d="M321.068 121.532C321.284 124.328 319.317 126.81 316.676 127.075C314.654 127.278 312.825 126.121 311.98 124.316L309.583 124.527L307.773 125.4C307.359 125.599 307.081 125.994 307.017 126.449C306.846 127.673 306.536 128.853 306.105 129.974C305.959 130.354 305.984 130.777 306.183 131.131L306.828 132.284L308.621 133.487C309.566 133.125 310.666 133.212 311.571 133.819C313.104 134.848 313.472 136.967 312.331 138.458C311.35 139.742 309.524 140.095 308.135 139.27C307.249 138.744 306.714 137.873 306.584 136.941L304.597 135.609L303.347 135.456C302.917 135.404 302.49 135.551 302.177 135.851C301.122 136.856 299.93 137.719 298.635 138.41C298.199 138.642 297.919 139.088 297.889 139.58L297.73 142.112L298.516 145.232C299.855 145.605 300.961 146.667 301.325 148.11C301.874 150.292 300.519 152.505 298.309 152.998C296.315 153.442 294.27 152.28 293.636 150.337C293.143 148.82 293.596 147.253 294.638 146.228L293.848 143.09L292.629 141.129C292.301 140.603 291.723 140.292 291.102 140.293C291.099 140.293 291.096 140.293 291.093 140.293C290.024 140.293 288.979 140.186 287.968 139.987C287.366 139.868 286.745 140.058 286.322 140.504L284.71 142.205L282.906 145.949C283.328 146.807 283.366 147.844 282.919 148.773C282.116 150.438 280.067 151.1 278.429 150.179C277.028 149.389 276.421 147.646 277.031 146.156C277.448 145.14 278.311 144.461 279.288 144.234L281.103 140.466L281.46 137.937C281.525 137.471 281.346 137.001 280.98 136.705C279.536 135.533 278.297 134.118 277.329 132.521C277.089 132.124 276.656 131.883 276.192 131.88L273.667 131.855L270.903 132.725C270.709 134.444 269.532 135.971 267.776 136.523C265.417 137.266 262.904 135.969 262.138 133.625C261.373 131.282 262.666 128.719 265.007 127.944C266.645 127.402 268.367 127.853 269.532 128.96L272.466 128.037L274.609 126.51C274.927 126.284 275.097 125.905 275.065 125.517C275.03 125.086 275.012 124.651 275.012 124.212C275.012 121.823 275.537 119.556 276.474 117.517C276.611 117.218 276.608 116.873 276.463 116.578L275.829 115.28L274.106 113.98C273.141 114.288 272.048 114.141 271.179 113.485C269.704 112.371 269.455 110.236 270.676 108.811C271.727 107.584 273.57 107.332 274.912 108.233C275.766 108.807 276.252 109.706 276.33 110.644L278.24 112.084L280.164 112.428C281.565 111.127 283.197 110.073 284.991 109.335L285.443 106.59L284.873 103.755C283.185 103.32 281.815 102.027 281.446 100.303C280.926 97.8668 282.6 95.4943 285.186 95.0047C287.771 94.515 290.289 96.0914 290.809 98.5274C291.199 100.35 290.36 102.137 288.829 103.126L289.367 105.8L290.69 107.91C290.776 108.048 290.928 108.131 291.09 108.131H291.093C294.121 108.131 296.956 108.973 299.377 110.436C299.51 110.515 299.674 110.526 299.814 110.46L301.885 109.501L304.303 106.885C304.158 105.948 304.425 104.954 305.12 104.203C306.375 102.846 308.524 102.812 309.821 104.169C310.958 105.359 311.002 107.258 309.922 108.501C309.224 109.305 308.221 109.677 307.242 109.603L304.824 112.219L304.039 114.331C303.984 114.478 304.009 114.641 304.1 114.768C305.054 116.077 305.815 117.535 306.34 119.101C306.485 119.53 306.827 119.865 307.264 119.988L309.23 120.539L311.784 120.313C312.411 118.507 313.975 117.141 315.895 116.948C318.537 116.683 320.853 118.735 321.068 121.532Z" fill="#8844EE"/>
<path d="M291.093 136.119C297.669 136.119 303 130.788 303 124.212C303 117.635 297.669 112.304 291.093 112.304C284.516 112.304 279.185 117.635 279.185 124.212C279.185 130.788 284.516 136.119 291.093 136.119Z" fill="#B07DFB"/>
<path d="M282.815 124.212C282.815 118.252 287.193 113.315 292.908 112.441C292.316 112.35 291.71 112.304 291.093 112.304C284.516 112.304 279.185 117.635 279.185 124.212C279.185 130.788 284.516 136.119 291.093 136.119C291.71 136.119 292.316 136.072 292.907 135.982C287.192 135.108 282.815 130.171 282.815 124.212Z" fill="#9E6BEA"/>
<path d="M271.058 102.564C272.93 102.564 274.449 101.046 274.449 99.1732C274.449 97.3004 272.93 95.7822 271.058 95.7822C269.185 95.7822 267.667 97.3004 267.667 99.1732C267.667 101.046 269.185 102.564 271.058 102.564Z" fill="#8844EE"/>
<path d="M270.131 146.11C271.368 146.11 272.37 145.108 272.37 143.871C272.37 142.634 271.368 141.631 270.131 141.631C268.894 141.631 267.891 142.634 267.891 143.871C267.891 145.108 268.894 146.11 270.131 146.11Z" fill="#8844EE"/>
<path d="M311.254 150.849C313.076 150.849 314.553 149.372 314.553 147.55C314.553 145.728 313.076 144.251 311.254 144.251C309.432 144.251 307.955 145.728 307.955 147.55C307.955 149.372 309.432 150.849 311.254 150.849Z" fill="#8844EE"/>
<path d="M287.438 124.004C289.136 124.004 290.513 122.627 290.513 120.928C290.513 119.229 289.136 117.852 287.438 117.852C285.739 117.852 284.362 119.229 284.362 120.928C284.362 122.627 285.739 124.004 287.438 124.004Z" fill="#8844EE"/>
<path d="M289.907 132.575C291.063 132.575 292 131.637 292 130.481C292 129.325 291.063 128.388 289.907 128.388C288.75 128.388 287.813 129.325 287.813 130.481C287.813 131.637 288.75 132.575 289.907 132.575Z" fill="#8844EE"/>
<path d="M296.48 125.97C297.451 125.97 298.238 125.183 298.238 124.212C298.238 123.241 297.451 122.454 296.48 122.454C295.509 122.454 294.722 123.241 294.722 124.212C294.722 125.183 295.509 125.97 296.48 125.97Z" fill="#8844EE"/>
<path d="M321.981 121.461C321.854 119.808 321.107 118.331 319.877 117.301C318.726 116.338 317.28 115.889 315.804 116.037C313.792 116.239 312.019 117.555 311.146 119.45L309.317 119.612L307.511 119.106C307.371 119.067 307.258 118.955 307.209 118.809C306.684 117.248 305.935 115.774 304.981 114.425L305.62 112.707L307.636 110.526C308.783 110.488 309.85 109.982 310.614 109.101C311.998 107.506 311.941 105.061 310.483 103.536C309.683 102.699 308.606 102.24 307.453 102.252C306.316 102.262 305.22 102.746 304.448 103.581C303.692 104.399 303.304 105.466 303.352 106.565L301.336 108.746L299.646 109.53C297.126 108.056 294.264 107.26 291.337 107.217L290.232 105.455L289.842 103.519C291.395 102.25 292.12 100.278 291.705 98.3361C291.083 95.4217 288.082 93.5232 285.016 94.1048C283.472 94.3973 282.159 95.2557 281.318 96.5214C280.53 97.7072 280.257 99.1178 280.551 100.493C280.943 102.328 282.273 103.807 284.081 104.467L284.512 106.606L284.17 108.691C282.61 109.389 281.172 110.313 279.883 111.447L278.617 111.221L277.186 110.142C276.981 109.055 276.354 108.098 275.422 107.473C273.682 106.305 271.343 106.625 269.98 108.215C269.227 109.095 268.881 110.211 269.005 111.358C269.128 112.489 269.719 113.531 270.627 114.216C271.566 114.924 272.761 115.194 273.904 114.975L275.103 115.879L275.641 116.98C275.664 117.029 275.665 117.085 275.642 117.134C274.617 119.364 274.097 121.746 274.097 124.212C274.097 124.668 274.116 125.132 274.153 125.591C274.159 125.661 274.131 125.726 274.078 125.764L272.053 127.207L269.741 127.934C268.322 126.836 266.446 126.504 264.718 127.075C264.684 127.086 264.65 127.099 264.616 127.111L264.587 127.122C264.111 127.293 263.865 127.818 264.036 128.294C264.207 128.769 264.732 129.016 265.208 128.845L265.251 128.829C265.265 128.824 265.279 128.819 265.294 128.814C266.555 128.397 267.937 128.707 268.901 129.623C269.074 129.788 269.301 129.875 269.532 129.875C269.624 129.875 269.717 129.862 269.807 129.833L272.741 128.91C272.832 128.881 272.919 128.838 272.997 128.782L275.141 127.255C275.715 126.846 276.036 126.151 275.978 125.442C275.945 125.033 275.928 124.619 275.928 124.212C275.928 122.012 276.392 119.888 277.307 117.899C277.56 117.348 277.552 116.72 277.286 116.176L276.652 114.878C276.589 114.749 276.496 114.636 276.381 114.549L274.657 113.248C274.419 113.069 274.109 113.017 273.826 113.107C273.111 113.337 272.328 113.204 271.731 112.754C271.217 112.366 270.896 111.8 270.826 111.16C270.757 110.521 270.951 109.898 271.372 109.407C272.118 108.536 273.448 108.354 274.401 108.993C274.989 109.388 275.36 110.017 275.419 110.72C275.44 110.98 275.572 111.218 275.78 111.375L277.689 112.815C277.804 112.902 277.938 112.961 278.08 112.986L280.004 113.329C280.287 113.379 280.577 113.294 280.787 113.099C282.128 111.855 283.659 110.873 285.341 110.181C285.634 110.06 285.844 109.796 285.896 109.483L286.347 106.738C286.365 106.629 286.362 106.517 286.341 106.409L285.77 103.574C285.701 103.23 285.441 102.956 285.101 102.868C283.685 102.503 282.628 101.447 282.343 100.111C282.153 99.2218 282.331 98.307 282.843 97.5353C283.409 96.6836 284.302 96.1043 285.357 95.9043C287.454 95.5073 289.498 96.7694 289.915 98.7187C290.213 100.115 289.592 101.543 288.332 102.357C288.016 102.561 287.858 102.938 287.932 103.306L288.47 105.981C288.492 106.089 288.533 106.192 288.592 106.286L289.915 108.396C290.17 108.804 290.609 109.047 291.093 109.047H291.093C293.849 109.047 296.551 109.798 298.905 111.219C299.299 111.458 299.784 111.485 300.2 111.292L302.271 110.331C302.379 110.281 302.477 110.21 302.558 110.122L304.976 107.507C305.165 107.302 305.251 107.022 305.208 106.745C305.1 106.044 305.313 105.344 305.793 104.825C306.23 104.352 306.825 104.089 307.469 104.084C308.11 104.084 308.712 104.333 309.159 104.801C309.971 105.65 310.002 107.012 309.231 107.9C308.748 108.458 308.048 108.745 307.311 108.69C307.033 108.669 306.76 108.777 306.57 108.982L304.153 111.597C304.071 111.684 304.008 111.787 303.967 111.899L303.181 114.012C303.019 114.447 303.086 114.931 303.36 115.307C304.271 116.559 304.982 117.933 305.473 119.392C305.715 120.114 306.293 120.667 307.017 120.87L308.984 121.421C309.09 121.451 309.201 121.461 309.311 121.451L311.865 121.226C312.224 121.194 312.531 120.955 312.649 120.614C313.178 119.091 314.488 118.01 315.988 117.859C316.968 117.761 317.932 118.062 318.702 118.706C319.55 119.416 320.067 120.445 320.156 121.602C320.215 122.367 320.076 123.135 319.756 123.823C319.543 124.282 319.741 124.827 320.2 125.04C320.658 125.254 321.203 125.055 321.416 124.596C321.869 123.623 322.064 122.539 321.981 121.461Z" fill="black"/>
<path d="M317.372 125.996C317.115 126.08 316.85 126.137 316.584 126.164C314.999 126.322 313.518 125.445 312.809 123.927C312.646 123.579 312.282 123.369 311.899 123.403L309.502 123.615C309.391 123.624 309.284 123.654 309.184 123.702L307.375 124.575C306.689 124.906 306.216 125.559 306.11 126.322C305.951 127.458 305.662 128.576 305.25 129.645C305.005 130.283 305.053 130.988 305.384 131.579L306.028 132.731C306.098 132.857 306.198 132.964 306.317 133.044L308.111 134.248C308.358 134.413 308.67 134.449 308.948 134.343C309.649 134.074 310.439 134.163 311.06 134.58C311.594 134.938 311.946 135.485 312.051 136.121C312.156 136.755 311.997 137.388 311.604 137.902C310.907 138.813 309.589 139.068 308.602 138.482C307.993 138.121 307.588 137.513 307.49 136.814C307.454 136.556 307.31 136.326 307.094 136.181L305.107 134.848C304.987 134.768 304.85 134.717 304.707 134.699L303.457 134.547C302.758 134.462 302.061 134.696 301.545 135.187C300.544 136.141 299.419 136.954 298.203 137.602C297.496 137.979 297.025 138.715 296.975 139.522L296.816 142.055C296.81 142.15 296.819 142.244 296.842 142.336L297.628 145.455C297.708 145.774 297.953 146.025 298.269 146.113C299.336 146.412 300.166 147.263 300.436 148.334C300.642 149.149 300.512 149.993 300.07 150.709C299.629 151.425 298.932 151.92 298.11 152.104C296.576 152.446 294.993 151.545 294.507 150.053C294.14 148.926 294.436 147.711 295.28 146.882C295.512 146.655 295.606 146.321 295.527 146.005L294.736 142.867C294.713 142.775 294.675 142.688 294.626 142.607L293.406 140.646C292.912 139.851 292.051 139.377 291.094 139.377C291.093 139.377 291.093 139.377 291.092 139.377C290.102 139.377 289.111 139.28 288.145 139.089C287.225 138.907 286.295 139.201 285.657 139.874L284.045 141.575C283.98 141.644 283.926 141.722 283.885 141.808L282.08 145.551C281.958 145.805 281.959 146.101 282.083 146.353C282.399 146.996 282.403 147.732 282.093 148.375C281.814 148.955 281.321 149.381 280.707 149.575C280.092 149.768 279.443 149.699 278.879 149.381C277.885 148.822 277.446 147.558 277.878 146.504C278.167 145.801 278.756 145.299 279.495 145.127C279.765 145.064 279.992 144.882 280.112 144.633L281.928 140.865C281.969 140.779 281.997 140.688 282.01 140.595L282.366 138.065C282.476 137.282 282.166 136.488 281.557 135.994C280.184 134.881 279.026 133.553 278.112 132.046C277.712 131.387 276.98 130.972 276.2 130.965L273.675 130.94C273.579 130.939 273.483 130.954 273.392 130.983L270.627 131.852C270.281 131.961 270.032 132.263 269.992 132.624C269.833 134.036 268.855 135.225 267.5 135.651C265.632 136.239 263.616 135.202 263.008 133.341C262.766 132.601 262.774 131.815 263.031 131.07C263.195 130.591 262.941 130.07 262.463 129.906C261.985 129.741 261.464 129.995 261.299 130.473C260.912 131.599 260.9 132.787 261.267 133.91C262.011 136.187 264.149 137.647 266.435 137.646C266.97 137.646 267.514 137.566 268.05 137.398C269.899 136.816 271.284 135.294 271.71 133.431L273.803 132.773L276.183 132.795C276.334 132.797 276.473 132.873 276.547 132.995C277.569 134.682 278.867 136.17 280.404 137.416C280.517 137.508 280.574 137.659 280.553 137.81L280.217 140.198L278.639 143.472C277.534 143.863 276.634 144.711 276.184 145.809C275.395 147.735 276.167 149.957 277.981 150.977C278.991 151.546 280.154 151.668 281.256 151.322C282.343 150.98 283.249 150.196 283.744 149.17C284.232 148.158 284.287 147.016 283.91 145.974L285.473 142.731L286.987 141.134C287.19 140.919 287.491 140.826 287.79 140.885C288.872 141.099 289.983 141.208 291.103 141.208H291.104C291.414 141.208 291.694 141.359 291.851 141.613L292.995 143.453L293.631 145.976C292.572 147.269 292.239 149.002 292.766 150.62C293.43 152.66 295.378 154.007 297.462 154.007C297.809 154.007 298.159 153.969 298.508 153.892C299.818 153.6 300.927 152.811 301.63 151.671C302.333 150.53 302.54 149.186 302.212 147.886C301.827 146.358 300.728 145.112 299.283 144.527L298.653 142.027L298.803 139.637C298.814 139.459 298.915 139.299 299.065 139.218C300.428 138.492 301.687 137.582 302.809 136.513C302.927 136.401 303.083 136.347 303.237 136.366L304.269 136.491L305.758 137.49C306.022 138.564 306.702 139.484 307.667 140.057C309.469 141.126 311.787 140.678 313.059 139.014C313.762 138.094 314.046 136.961 313.858 135.823C313.673 134.7 313.025 133.693 312.08 133.059C311.104 132.404 309.896 132.2 308.767 132.483L307.52 131.646L306.983 130.685C306.919 130.57 306.91 130.431 306.96 130.303C307.421 129.104 307.746 127.85 307.924 126.576C307.946 126.42 308.038 126.289 308.171 126.225L309.83 125.424L311.458 125.281C312.59 127.154 314.61 128.203 316.767 127.986C317.165 127.946 317.562 127.862 317.945 127.736C318.426 127.578 318.687 127.06 318.529 126.58C318.37 126.099 317.853 125.838 317.372 125.996Z" fill="black"/>
<path d="M294.035 111.729C293.075 111.503 292.085 111.389 291.093 111.389C284.022 111.389 278.27 117.141 278.27 124.212C278.27 131.282 284.022 137.035 291.093 137.035C298.163 137.035 303.916 131.282 303.916 124.212C303.916 119.791 301.682 115.738 297.942 113.37C297.515 113.1 296.949 113.227 296.678 113.654C296.408 114.082 296.535 114.647 296.962 114.918C300.169 116.948 302.084 120.422 302.084 124.212C302.084 130.272 297.153 135.203 291.093 135.203C285.032 135.203 280.101 130.272 280.101 124.212C280.101 118.151 285.032 113.22 291.093 113.22C291.944 113.22 292.793 113.318 293.616 113.512C294.109 113.628 294.601 113.322 294.717 112.83C294.833 112.337 294.527 111.844 294.035 111.729Z" fill="black"/>
<path d="M271.058 103.48C273.432 103.48 275.364 101.548 275.364 99.173C275.364 96.7982 273.432 94.8663 271.058 94.8663C268.683 94.8663 266.751 96.7984 266.751 99.1732C266.751 101.548 268.683 103.48 271.058 103.48ZM271.058 96.698C272.422 96.698 273.533 97.8084 273.533 99.1732C273.533 100.538 272.422 101.648 271.058 101.648C269.693 101.648 268.582 100.538 268.582 99.1732C268.582 97.8084 269.693 96.698 271.058 96.698Z" fill="black"/>
<path d="M270.131 140.715C268.391 140.715 266.975 142.131 266.975 143.871C266.975 145.611 268.391 147.026 270.131 147.026C271.871 147.026 273.286 145.611 273.286 143.871C273.286 142.131 271.871 140.715 270.131 140.715ZM270.131 145.195C269.401 145.195 268.807 144.601 268.807 143.871C268.807 143.141 269.401 142.547 270.131 142.547C270.861 142.547 271.455 143.141 271.455 143.871C271.455 144.601 270.861 145.195 270.131 145.195Z" fill="black"/>
<path d="M311.254 143.335C308.93 143.335 307.039 145.226 307.039 147.55C307.039 149.874 308.93 151.765 311.254 151.765C313.578 151.765 315.468 149.874 315.468 147.55C315.468 145.226 313.578 143.335 311.254 143.335ZM311.254 149.933C309.94 149.933 308.87 148.864 308.87 147.55C308.87 146.236 309.939 145.167 311.254 145.167C312.568 145.167 313.637 146.236 313.637 147.55C313.637 148.864 312.568 149.933 311.254 149.933Z" fill="black"/>
<path d="M291.429 120.928C291.429 118.727 289.639 116.937 287.438 116.937C285.237 116.937 283.446 118.727 283.446 120.928C283.446 123.129 285.237 124.919 287.438 124.919C289.639 124.919 291.429 123.129 291.429 120.928ZM287.438 123.088C286.247 123.088 285.278 122.119 285.278 120.928C285.278 119.737 286.247 118.768 287.438 118.768C288.629 118.768 289.597 119.737 289.597 120.928C289.597 122.119 288.629 123.088 287.438 123.088Z" fill="black"/>
<path d="M289.907 133.49C291.566 133.49 292.916 132.14 292.916 130.481C292.916 128.822 291.566 127.472 289.907 127.472C288.247 127.472 286.897 128.822 286.897 130.481C286.897 132.14 288.247 133.49 289.907 133.49ZM289.907 129.303C290.556 129.303 291.084 129.832 291.084 130.481C291.084 131.13 290.556 131.659 289.907 131.659C289.257 131.659 288.729 131.13 288.729 130.481C288.729 129.832 289.257 129.303 289.907 129.303Z" fill="black"/>
<path d="M293.806 124.212C293.806 125.686 295.006 126.885 296.48 126.885C297.954 126.885 299.154 125.686 299.154 124.212C299.154 122.737 297.954 121.538 296.48 121.538C295.006 121.538 293.806 122.737 293.806 124.212ZM296.48 123.369C296.944 123.369 297.322 123.747 297.322 124.212C297.322 124.676 296.944 125.054 296.48 125.054C296.016 125.054 295.638 124.676 295.638 124.212C295.638 123.747 296.016 123.369 296.48 123.369Z" fill="black"/>
</g>
<g opacity="0.1">
<path d="M188.139 395.648C188.607 401.706 184.345 407.084 178.623 407.658C174.243 408.098 170.28 405.592 168.449 401.68L163.256 402.137L159.336 404.029C158.439 404.46 157.836 405.317 157.698 406.301C157.328 408.955 156.656 411.51 155.722 413.939C155.405 414.761 155.46 415.679 155.891 416.446L157.288 418.944L161.172 421.549C163.219 420.766 165.603 420.954 167.563 422.269C170.886 424.499 171.682 429.089 169.211 432.319C167.084 435.102 163.129 435.866 160.119 434.078C158.201 432.941 157.042 431.052 156.759 429.033L152.455 426.147L149.746 425.816C148.815 425.703 147.889 426.023 147.212 426.671C144.926 428.848 142.344 430.718 139.537 432.216C138.593 432.718 137.987 433.684 137.921 434.75L137.577 440.237L139.281 446.996C142.18 447.805 144.577 450.104 145.365 453.231C146.556 457.958 143.619 462.754 138.831 463.82C134.511 464.783 130.08 462.265 128.707 458.056C127.638 454.771 128.62 451.374 130.879 449.154L129.167 442.356L126.525 438.107C125.816 436.967 124.562 436.292 123.218 436.295C123.21 436.295 123.205 436.295 123.197 436.295C120.882 436.295 118.618 436.065 116.427 435.634C115.123 435.374 113.776 435.787 112.861 436.753L109.369 440.438L105.459 448.549C106.375 450.408 106.457 452.654 105.488 454.667C103.748 458.276 99.3087 459.709 95.7612 457.715C92.7243 456.003 91.4095 452.226 92.7322 448.998C93.6343 446.797 95.5046 445.326 97.621 444.834L101.555 436.671L102.327 431.192C102.467 430.181 102.081 429.163 101.288 428.523C98.158 425.983 95.4755 422.917 93.3777 419.457C92.8566 418.597 91.9201 418.076 90.9149 418.068L85.4441 418.015L79.4549 419.899C79.0343 423.623 76.4841 426.933 72.68 428.129C67.5691 429.737 62.1248 426.928 60.4662 421.848C58.8075 416.772 61.609 411.219 66.6802 409.542C70.2304 408.367 73.9604 409.344 76.4841 411.743L82.8411 409.743L87.4838 406.434C88.1742 405.944 88.5419 405.124 88.4731 404.283C88.3964 403.349 88.3567 402.407 88.3567 401.455C88.3567 396.28 89.4943 391.368 91.5259 386.95C91.8222 386.302 91.8143 385.556 91.5021 384.916L90.1265 382.104L86.3938 379.286C84.304 379.956 81.9363 379.636 80.0528 378.215C76.8571 375.802 76.3175 371.176 78.9629 368.088C81.2406 365.43 85.2325 364.885 88.1398 366.837C89.9916 368.08 91.0445 370.027 91.2138 372.059L95.3512 375.181L99.5204 375.924C102.555 373.107 106.092 370.824 109.978 369.223L110.956 363.276L109.721 357.134C106.065 356.192 103.097 353.39 102.298 349.655C101.171 344.378 104.798 339.237 110.401 338.177C116.001 337.116 121.456 340.531 122.583 345.809C123.427 349.758 121.61 353.629 118.292 355.771L119.459 361.565L122.324 366.136C122.512 366.435 122.84 366.615 123.192 366.615H123.197C129.757 366.615 135.9 368.44 141.146 371.609C141.434 371.781 141.789 371.805 142.093 371.662L146.58 369.583L151.817 363.917C151.503 361.885 152.082 359.731 153.587 358.105C156.307 355.166 160.963 355.091 163.772 358.03C166.235 360.61 166.33 364.723 163.992 367.416C162.478 369.16 160.307 369.964 158.185 369.805L152.947 375.472L151.246 380.048C151.127 380.366 151.18 380.72 151.378 380.995C153.444 383.831 155.093 386.99 156.23 390.381C156.545 391.312 157.286 392.037 158.233 392.304L162.492 393.498L168.026 393.008C169.383 389.096 172.772 386.135 176.933 385.717C182.655 385.143 187.673 389.59 188.139 395.648Z" fill="#8844EE"/>
<path d="M123.197 427.253C137.445 427.253 148.995 415.703 148.995 401.455C148.995 387.207 137.445 375.657 123.197 375.657C108.949 375.657 97.3987 387.207 97.3987 401.455C97.3987 415.703 108.949 427.253 123.197 427.253Z" fill="#B07DFB"/>
<path d="M105.262 401.455C105.262 388.543 114.748 377.846 127.13 375.953C125.848 375.757 124.533 375.657 123.197 375.657C108.948 375.657 97.3985 387.207 97.3985 401.455C97.3985 415.703 108.948 427.253 123.197 427.253C124.533 427.253 125.846 427.151 127.128 426.955C114.747 425.062 105.262 414.366 105.262 401.455Z" fill="#9E6BEA"/>
<path d="M79.7902 354.554C83.8476 354.554 87.1367 351.265 87.1367 347.208C87.1367 343.15 83.8476 339.861 79.7902 339.861C75.7328 339.861 72.4436 343.15 72.4436 347.208C72.4436 351.265 75.7328 354.554 79.7902 354.554Z" fill="#8844EE"/>
<path d="M77.7818 448.899C80.4617 448.899 82.6343 446.727 82.6343 444.047C82.6343 441.367 80.4617 439.194 77.7818 439.194C75.1018 439.194 72.9293 441.367 72.9293 444.047C72.9293 446.727 75.1018 448.899 77.7818 448.899Z" fill="#8844EE"/>
<path d="M166.877 459.165C170.824 459.165 174.024 455.965 174.024 452.018C174.024 448.071 170.824 444.871 166.877 444.871C162.929 444.871 159.729 448.071 159.729 452.018C159.729 455.965 162.929 459.165 166.877 459.165Z" fill="#8844EE"/>
<path d="M115.278 401.004C118.958 401.004 121.942 398.02 121.942 394.34C121.942 390.66 118.958 387.677 115.278 387.677C111.598 387.677 108.615 390.66 108.615 394.34C108.615 398.02 111.598 401.004 115.278 401.004Z" fill="#8844EE"/>
<path d="M120.627 419.573C123.132 419.573 125.163 417.543 125.163 415.038C125.163 412.533 123.132 410.502 120.627 410.502C118.122 410.502 116.092 412.533 116.092 415.038C116.092 417.543 118.122 419.573 120.627 419.573Z" fill="#8844EE"/>
<path d="M134.869 405.263C136.972 405.263 138.678 403.558 138.678 401.455C138.678 399.351 136.972 397.646 134.869 397.646C132.766 397.646 131.06 399.351 131.06 401.455C131.06 403.558 132.766 405.263 134.869 405.263Z" fill="#8844EE"/>
<path d="M190.119 395.496C189.843 391.914 188.223 388.713 185.56 386.483C183.066 384.396 179.933 383.423 176.736 383.743C172.376 384.181 168.535 387.033 166.642 391.139L162.68 391.489L158.769 390.393C158.465 390.308 158.219 390.067 158.113 389.749C156.976 386.368 155.354 383.175 153.287 380.251L154.671 376.529L159.039 371.805C161.524 371.721 163.835 370.626 165.491 368.716C168.489 365.261 168.365 359.965 165.207 356.66C163.474 354.846 161.14 353.852 158.643 353.879C156.178 353.899 153.805 354.948 152.132 356.758C150.493 358.53 149.654 360.842 149.758 363.222L145.389 367.947L141.728 369.645C136.268 366.454 130.068 364.728 123.726 364.636L121.332 360.818L120.488 356.623C123.851 353.873 125.423 349.602 124.524 345.394C123.175 339.08 116.673 334.967 110.031 336.227C106.687 336.861 103.841 338.721 102.019 341.463C100.312 344.032 99.722 347.088 100.359 350.068C101.207 354.042 104.088 357.247 108.007 358.678L108.939 363.312L108.198 367.829C104.819 369.34 101.703 371.344 98.9111 373.8L96.1673 373.311L93.0669 370.972C92.6238 368.617 91.2646 366.544 89.2451 365.189C85.4762 362.66 80.4081 363.352 77.4563 366.798C75.8246 368.703 75.0744 371.121 75.344 373.606C75.6098 376.057 76.8907 378.314 78.8581 379.798C80.8924 381.333 83.4797 381.918 85.956 381.442L88.5541 383.402L89.7194 385.787C89.771 385.892 89.7723 386.014 89.7234 386.121C87.5009 390.953 86.3743 396.112 86.3743 401.455C86.3743 402.443 86.4153 403.449 86.496 404.442C86.5084 404.596 86.4478 404.736 86.3335 404.817L81.9461 407.943L76.9384 409.519C73.8636 407.14 69.7979 406.421 66.0557 407.658C65.9808 407.683 65.907 407.709 65.8334 407.737L65.7715 407.759C64.7406 408.131 64.206 409.268 64.5771 410.299C64.9483 411.329 66.0845 411.864 67.1162 411.493L67.2091 411.459C67.2403 411.448 67.2715 411.436 67.3024 411.425C70.0354 410.522 73.03 411.194 75.118 413.179C75.4924 413.535 75.9836 413.725 76.4852 413.725C76.6841 413.725 76.8849 413.695 77.0804 413.634L83.4368 411.634C83.6355 411.572 83.823 411.478 83.9929 411.357L88.6361 408.049C89.881 407.162 90.5765 405.657 90.4511 404.12C90.3792 403.233 90.3424 402.336 90.3424 401.454C90.3424 396.688 91.3471 392.087 93.3288 387.778C93.8772 386.585 93.8613 385.225 93.2849 384.045L91.9108 381.233C91.7738 380.952 91.5725 380.709 91.3233 380.52L87.5882 377.703C87.0735 377.314 86.4018 377.2 85.7883 377.397C84.2392 377.893 82.5421 377.607 81.2483 376.63C80.1353 375.791 79.4399 374.565 79.2893 373.178C79.1391 371.793 79.5586 370.444 80.4705 369.379C82.0868 367.492 84.9701 367.099 87.0346 368.484C88.3073 369.338 89.1104 370.701 89.2382 372.225C89.2853 372.788 89.5697 373.303 90.0204 373.643L94.1573 376.764C94.4065 376.953 94.6967 377.079 95.0041 377.134L99.1722 377.877C99.7857 377.986 100.414 377.801 100.87 377.378C103.774 374.683 107.093 372.557 110.735 371.058C111.371 370.796 111.826 370.223 111.938 369.544L112.914 363.597C112.953 363.361 112.949 363.119 112.902 362.885L111.666 356.743C111.516 355.997 110.953 355.403 110.216 355.213C107.148 354.423 104.858 352.134 104.24 349.24C103.828 347.313 104.214 345.331 105.325 343.659C106.551 341.814 108.485 340.559 110.771 340.126C115.314 339.266 119.743 342 120.645 346.223C121.29 349.247 119.945 352.341 117.217 354.105C116.532 354.548 116.188 355.364 116.349 356.163L117.515 361.956C117.562 362.191 117.651 362.416 117.779 362.619L120.645 367.19C121.198 368.073 122.15 368.6 123.197 368.6H123.198C129.169 368.6 135.022 370.227 140.122 373.307C140.977 373.823 142.027 373.881 142.929 373.463L147.415 371.382C147.65 371.273 147.861 371.119 148.037 370.929L153.275 365.264C153.686 364.819 153.871 364.212 153.779 363.613C153.544 362.094 154.006 360.577 155.046 359.452C155.992 358.428 157.282 357.859 158.676 357.847C160.066 357.847 161.37 358.387 162.339 359.401C164.097 361.241 164.165 364.191 162.495 366.116C161.447 367.323 159.931 367.947 158.336 367.827C157.732 367.781 157.14 368.014 156.73 368.458L151.492 374.124C151.316 374.314 151.179 374.537 151.089 374.779L149.386 379.358C149.036 380.299 149.182 381.347 149.775 382.163C151.749 384.875 153.289 387.852 154.352 391.014C154.877 392.578 156.128 393.774 157.698 394.214L161.958 395.408C162.189 395.473 162.429 395.495 162.668 395.474L168.201 394.986C168.979 394.917 169.644 394.398 169.9 393.66C171.046 390.36 173.885 388.018 177.132 387.692C179.256 387.479 181.346 388.13 183.013 389.526C184.851 391.065 185.97 393.294 186.163 395.801C186.291 397.458 185.991 399.122 185.297 400.613C184.835 401.607 185.265 402.787 186.258 403.25C187.252 403.712 188.432 403.282 188.895 402.288C189.875 400.18 190.298 397.831 190.119 395.496Z" fill="black"/>
<path d="M180.133 405.32C179.576 405.503 179.001 405.626 178.425 405.684C174.992 406.027 171.783 404.126 170.246 400.838C169.893 400.083 169.105 399.628 168.274 399.702L163.081 400.161C162.842 400.182 162.609 400.246 162.393 400.35L158.473 402.242C156.988 402.958 155.963 404.373 155.732 406.027C155.388 408.488 154.762 410.91 153.87 413.226C153.338 414.608 153.443 416.135 154.159 417.415L155.555 419.912C155.708 420.185 155.922 420.417 156.182 420.591L160.067 423.198C160.602 423.557 161.279 423.634 161.881 423.404C163.4 422.822 165.111 423.014 166.457 423.918C167.614 424.694 168.377 425.88 168.604 427.256C168.831 428.63 168.487 430.001 167.635 431.115C166.125 433.089 163.269 433.641 161.131 432.372C159.813 431.59 158.935 430.273 158.723 428.758C158.645 428.199 158.332 427.7 157.863 427.386L153.56 424.499C153.301 424.325 153.004 424.214 152.694 424.177L149.985 423.847C148.47 423.663 146.96 424.168 145.842 425.234C143.673 427.301 141.237 429.061 138.602 430.466C137.07 431.283 136.05 432.877 135.941 434.626L135.597 440.113C135.584 440.318 135.603 440.523 135.653 440.722L137.356 447.48C137.53 448.17 138.06 448.714 138.745 448.906C141.056 449.552 142.855 451.395 143.44 453.716C143.885 455.483 143.604 457.311 142.647 458.863C141.691 460.414 140.182 461.487 138.399 461.884C135.076 462.625 131.647 460.673 130.594 457.441C129.798 454.999 130.441 452.367 132.27 450.572C132.772 450.078 132.976 449.355 132.803 448.671L131.09 441.872C131.04 441.673 130.959 441.483 130.851 441.309L128.21 437.061C127.139 435.338 125.274 434.31 123.2 434.31C123.199 434.31 123.197 434.31 123.196 434.31C121.05 434.31 118.903 434.101 116.812 433.687C114.819 433.292 112.803 433.929 111.42 435.388L107.927 439.074C107.786 439.223 107.669 439.392 107.58 439.577L103.671 447.688C103.406 448.237 103.409 448.878 103.678 449.425C104.363 450.817 104.371 452.413 103.7 453.806C103.094 455.063 102.027 455.986 100.695 456.404C99.3643 456.823 97.9577 456.674 96.7345 455.986C94.583 454.775 93.6314 452.036 94.5679 449.751C95.1925 448.228 96.4686 447.141 98.0694 446.768C98.6543 446.632 99.1463 446.238 99.4072 445.697L103.342 437.534C103.431 437.349 103.491 437.152 103.519 436.949L104.29 431.469C104.529 429.771 103.857 428.052 102.537 426.982C99.5635 424.57 97.053 421.693 95.0748 418.429C94.2081 416.999 92.6209 416.101 90.9321 416.085L85.4614 416.033C85.2526 416.03 85.0458 416.062 84.8471 416.124L78.8573 418.009C78.1084 418.244 77.5688 418.899 77.4809 419.679C77.1365 422.74 75.0175 425.315 72.0825 426.238C68.0347 427.512 63.6682 425.267 62.3505 421.233C61.8267 419.63 61.8437 417.928 62.4 416.313C62.7566 415.276 62.2058 414.147 61.1696 413.791C60.1331 413.434 59.0043 413.985 58.6477 415.021C57.8083 417.46 57.7843 420.034 58.5784 422.466C60.1905 427.4 64.8229 430.562 69.7751 430.562C70.9349 430.562 72.1131 430.388 73.2732 430.023C77.2809 428.762 80.2803 425.464 81.2033 421.429L85.7391 420.002L90.8956 420.051C91.2209 420.054 91.5225 420.22 91.6823 420.484C93.8978 424.14 96.7094 427.363 100.039 430.063C100.284 430.261 100.408 430.588 100.362 430.915L99.6339 436.089L96.2152 443.182C93.8211 444.03 91.8725 445.867 90.8974 448.246C89.1869 452.418 90.8601 457.232 94.7896 459.443C96.9779 460.675 99.4987 460.94 101.886 460.189C104.24 459.449 106.204 457.751 107.275 455.528C108.333 453.335 108.452 450.862 107.635 448.603L111.022 441.578L114.302 438.117C114.743 437.651 115.393 437.45 116.043 437.579C118.386 438.042 120.793 438.278 123.22 438.278H123.222C123.894 438.278 124.5 438.606 124.841 439.155L127.319 443.141L128.697 448.609C126.403 451.408 125.68 455.163 126.822 458.67C128.261 463.088 132.482 466.007 136.996 466.007C137.747 466.007 138.507 465.926 139.263 465.757C142.101 465.125 144.502 463.417 146.026 460.946C147.549 458.474 147.998 455.562 147.288 452.747C146.454 449.437 144.071 446.737 140.942 445.469L139.577 440.052L139.902 434.874C139.926 434.489 140.144 434.142 140.47 433.967C143.422 432.393 146.151 430.421 148.58 428.107C148.836 427.863 149.174 427.747 149.507 427.787L151.744 428.059L154.97 430.223C155.543 432.549 157.015 434.544 159.106 435.785C163.009 438.101 168.031 437.13 170.787 433.525C172.312 431.532 172.927 429.077 172.519 426.61C172.118 424.178 170.714 421.995 168.668 420.622C166.552 419.203 163.936 418.762 161.49 419.374L158.787 417.561L157.623 415.479C157.485 415.231 157.467 414.93 157.573 414.652C158.574 412.054 159.277 409.337 159.662 406.577C159.71 406.239 159.91 405.955 160.198 405.816L163.791 404.082L167.32 403.771C169.772 407.83 174.148 410.101 178.822 409.632C179.684 409.546 180.543 409.363 181.374 409.09C182.415 408.747 182.98 407.626 182.638 406.585C182.295 405.543 181.174 404.978 180.133 405.32Z" fill="black"/>
<path d="M129.571 374.41C127.491 373.921 125.346 373.674 123.197 373.674C107.878 373.674 95.4155 386.136 95.4155 401.455C95.4155 416.774 107.878 429.236 123.197 429.236C138.516 429.236 150.978 416.774 150.978 401.455C150.978 391.877 146.14 383.097 138.036 377.967C137.11 377.38 135.884 377.656 135.298 378.582C134.712 379.507 134.988 380.733 135.914 381.319C142.862 385.718 147.01 393.245 147.01 401.455C147.01 414.585 136.328 425.268 123.197 425.268C110.066 425.268 99.3836 414.586 99.3836 401.455C99.3836 388.324 110.066 377.642 123.197 377.642C125.041 377.642 126.881 377.854 128.664 378.273C129.731 378.524 130.799 377.862 131.049 376.795C131.3 375.728 130.638 374.661 129.571 374.41Z" fill="black"/>
<path d="M79.7901 356.538C84.9352 356.538 89.1207 352.353 89.1207 347.208C89.1207 342.063 84.9352 337.877 79.7901 337.877C74.645 337.877 70.4595 342.063 70.4595 347.208C70.4595 352.353 74.645 356.538 79.7901 356.538ZM79.7901 341.845C82.7469 341.845 85.1526 344.251 85.1526 347.208C85.1526 350.165 82.7469 352.57 79.7901 352.57C76.8333 352.57 74.4276 350.165 74.4276 347.208C74.4276 344.251 76.8333 341.845 79.7901 341.845Z" fill="black"/>
<path d="M77.7819 437.21C74.0122 437.21 70.9451 440.277 70.9451 444.046C70.9451 447.816 74.012 450.883 77.7819 450.883C81.5516 450.883 84.6185 447.816 84.6185 444.046C84.6185 440.277 81.5516 437.21 77.7819 437.21ZM77.7819 446.915C76.2002 446.915 74.9132 445.628 74.9132 444.046C74.9132 442.465 76.2 441.178 77.7819 441.178C79.3636 441.178 80.6503 442.465 80.6503 444.046C80.6503 445.628 79.3636 446.915 77.7819 446.915Z" fill="black"/>
<path d="M166.877 442.886C161.842 442.886 157.745 446.983 157.745 452.018C157.745 457.053 161.841 461.149 166.877 461.149C171.912 461.149 176.008 457.053 176.008 452.018C176.008 446.983 171.912 442.886 166.877 442.886ZM166.877 457.181C164.03 457.181 161.713 454.865 161.713 452.018C161.713 449.17 164.029 446.854 166.877 446.854C169.724 446.854 172.04 449.17 172.04 452.018C172.04 454.865 169.724 457.181 166.877 457.181Z" fill="black"/>
<path d="M123.926 394.341C123.926 389.572 120.046 385.693 115.278 385.693C110.51 385.693 106.63 389.572 106.63 394.341C106.63 399.109 110.51 402.988 115.278 402.988C120.046 402.988 123.926 399.109 123.926 394.341ZM115.278 399.02C112.698 399.02 110.599 396.921 110.599 394.341C110.599 391.76 112.698 389.661 115.278 389.661C117.858 389.661 119.958 391.76 119.958 394.341C119.958 396.921 117.858 399.02 115.278 399.02Z" fill="black"/>
<path d="M120.627 421.557C124.222 421.557 127.147 418.632 127.147 415.037C127.147 411.443 124.222 408.518 120.627 408.518C117.032 408.518 114.108 411.443 114.108 415.037C114.108 418.633 117.032 421.557 120.627 421.557ZM120.627 412.486C122.034 412.486 123.179 413.631 123.179 415.038C123.179 416.445 122.034 417.589 120.627 417.589C119.221 417.589 118.076 416.445 118.076 415.038C118.076 413.631 119.22 412.486 120.627 412.486Z" fill="black"/>
<path d="M129.076 401.455C129.076 404.649 131.675 407.248 134.869 407.248C138.063 407.248 140.661 404.649 140.661 401.455C140.661 398.261 138.063 395.662 134.869 395.662C131.675 395.662 129.076 398.261 129.076 401.455ZM134.869 399.63C135.875 399.63 136.693 400.449 136.693 401.455C136.693 402.461 135.875 403.279 134.869 403.279C133.863 403.279 133.044 402.461 133.044 401.455C133.044 400.449 133.863 399.63 134.869 399.63Z" fill="black"/>
</g>
</svg>
