<svg width="1440" height="650" viewBox="0 0 1440 650" fill="none" xmlns="http://www.w3.org/2000/svg">
<path d="M0 650V304.298C189.066 304.298 809.781 304.298 1440 0V650H0Z" fill="url(#paint0_linear)"/>
<path d="M1315.43 99.0405C1316.21 109.13 1309.12 118.087 1299.59 119.043C1292.29 119.775 1285.69 115.602 1282.64 109.086L1273.99 109.848L1267.46 112.999C1265.97 113.717 1264.96 115.144 1264.74 116.783C1264.12 121.202 1263 125.458 1261.44 129.503C1260.92 130.873 1261.01 132.402 1261.73 133.68L1264.05 137.839L1270.52 142.179C1273.93 140.875 1277.9 141.188 1281.17 143.377C1286.7 147.092 1288.03 154.736 1283.91 160.116C1280.37 164.751 1273.78 166.024 1268.77 163.045C1265.57 161.151 1263.64 158.005 1263.17 154.643L1256 149.836L1251.49 149.286C1249.94 149.096 1248.4 149.629 1247.27 150.709C1243.46 154.335 1239.16 157.45 1234.49 159.944C1232.92 160.781 1231.91 162.389 1231.8 164.165L1231.22 173.302L1234.06 184.56C1238.89 185.908 1242.88 189.737 1244.2 194.944C1246.18 202.818 1241.29 210.806 1233.31 212.581C1226.12 214.185 1218.74 209.991 1216.45 202.981C1214.67 197.509 1216.31 191.851 1220.07 188.155L1217.22 176.832L1212.82 169.756C1211.64 167.857 1209.55 166.733 1207.31 166.738C1207.3 166.738 1207.29 166.738 1207.27 166.738C1203.42 166.738 1199.65 166.354 1196 165.636C1193.83 165.204 1191.58 165.892 1190.06 167.5L1184.24 173.637L1177.73 187.146C1179.26 190.243 1179.39 193.984 1177.78 197.337C1174.88 203.346 1167.49 205.735 1161.58 202.412C1156.52 199.562 1154.33 193.27 1156.53 187.895C1158.04 184.229 1161.15 181.779 1164.68 180.96L1171.23 167.363L1172.52 158.239C1172.75 156.556 1172.11 154.859 1170.78 153.793C1165.57 149.563 1161.1 144.457 1157.61 138.694C1156.74 137.262 1155.18 136.394 1153.51 136.381L1144.4 136.293L1134.42 139.43C1133.72 145.633 1129.47 151.145 1123.14 153.137C1114.63 155.815 1105.56 151.136 1102.8 142.677C1100.03 134.222 1104.7 124.974 1113.15 122.18C1119.06 120.224 1125.27 121.85 1129.47 125.846L1140.06 122.515L1147.79 117.003C1148.94 116.188 1149.56 114.823 1149.44 113.421C1149.31 111.866 1149.25 110.298 1149.25 108.712C1149.25 100.094 1151.14 91.9117 1154.53 84.5538C1155.02 83.4744 1155.01 82.2319 1154.49 81.1657L1152.2 76.4822L1145.98 71.7898C1142.5 72.9045 1138.55 72.3714 1135.42 70.0054C1130.09 65.9872 1129.2 58.2813 1133.6 53.1395C1137.4 48.7116 1144.04 47.804 1148.89 51.0555C1151.97 53.1263 1153.72 56.3691 1154.01 59.7528L1160.9 64.9518L1167.84 66.1899C1172.89 61.4976 1178.78 57.6953 1185.26 55.0297L1186.89 45.1252L1184.83 34.8946C1178.74 33.3261 1173.8 28.6602 1172.47 22.439C1170.59 13.6492 1176.63 5.08847 1185.96 3.32169C1195.29 1.55491 1204.37 7.24297 1206.25 16.0328C1207.66 22.6109 1204.63 29.0567 1199.1 32.6255L1201.05 42.2745L1205.82 49.888C1206.13 50.3858 1206.68 50.6854 1207.26 50.6854H1207.27C1218.2 50.6854 1228.43 53.7255 1237.17 59.0038C1237.65 59.2902 1238.24 59.3299 1238.75 59.092L1246.22 55.6289L1254.94 46.1914C1254.42 42.8076 1255.38 39.2212 1257.89 36.5116C1262.42 31.6166 1270.17 31.4932 1274.85 36.3882C1278.95 40.684 1279.11 47.5352 1275.22 52.0204C1272.7 54.9239 1269.08 56.2633 1265.55 55.999L1256.82 65.4365L1253.99 73.0588C1253.79 73.5875 1253.88 74.1779 1254.21 74.6361C1257.65 79.3592 1260.4 84.6199 1262.29 90.2683C1262.81 91.8192 1264.05 93.0264 1265.63 93.4714L1272.72 95.4585L1281.94 94.6434C1284.2 88.127 1289.84 83.1968 1296.77 82.5007C1306.3 81.5446 1314.66 88.951 1315.43 99.0405Z" fill="#8844EE"/>
<path d="M1207.27 151.678C1231 151.678 1250.24 132.441 1250.24 108.712C1250.24 84.9818 1231 65.745 1207.27 65.745C1183.54 65.745 1164.31 84.9818 1164.31 108.712C1164.31 132.441 1183.54 151.678 1207.27 151.678Z" fill="#B07DFB"/>
<path d="M1177.4 108.712C1177.4 87.2076 1193.2 69.394 1213.82 66.2407C1211.69 65.9142 1209.5 65.745 1207.27 65.745C1183.54 65.745 1164.31 84.9813 1164.31 108.712C1164.31 132.442 1183.54 151.678 1207.27 151.678C1209.5 151.678 1211.69 151.509 1213.82 151.183C1193.2 148.029 1177.4 130.215 1177.4 108.712Z" fill="#9E6BEA"/>
<path d="M1134.98 30.5984C1141.74 30.5984 1147.22 25.1203 1147.22 18.3627C1147.22 11.6051 1141.74 6.12695 1134.98 6.12695C1128.22 6.12695 1122.74 11.6051 1122.74 18.3627C1122.74 25.1203 1128.22 30.5984 1134.98 30.5984Z" fill="#8844EE"/>
<path d="M1131.64 187.73C1136.1 187.73 1139.72 184.112 1139.72 179.648C1139.72 175.185 1136.1 171.567 1131.64 171.567C1127.17 171.567 1123.55 175.185 1123.55 179.648C1123.55 184.112 1127.17 187.73 1131.64 187.73Z" fill="#8844EE"/>
<path d="M1280.02 204.828C1286.6 204.828 1291.93 199.499 1291.93 192.924C1291.93 186.35 1286.6 181.02 1280.02 181.02C1273.45 181.02 1268.12 186.35 1268.12 192.924C1268.12 199.499 1273.45 204.828 1280.02 204.828Z" fill="#8844EE"/>
<path d="M1194.08 107.96C1200.21 107.96 1205.18 102.992 1205.18 96.8623C1205.18 90.733 1200.21 85.7642 1194.08 85.7642C1187.96 85.7642 1182.99 90.733 1182.99 96.8623C1182.99 102.992 1187.96 107.96 1194.08 107.96Z" fill="#8844EE"/>
<path d="M1202.99 138.888C1207.17 138.888 1210.55 135.506 1210.55 131.334C1210.55 127.162 1207.17 123.78 1202.99 123.78C1198.82 123.78 1195.44 127.162 1195.44 131.334C1195.44 135.506 1198.82 138.888 1202.99 138.888Z" fill="#8844EE"/>
<path d="M1226.71 115.055C1230.22 115.055 1233.06 112.215 1233.06 108.712C1233.06 105.208 1230.22 102.368 1226.71 102.368C1223.21 102.368 1220.37 105.208 1220.37 108.712C1220.37 112.215 1223.21 115.055 1226.71 115.055Z" fill="#8844EE"/>
<defs>
<linearGradient id="paint0_linear" x1="-1.38496e-06" y1="386.109" x2="1440.5" y2="386.109" gradientUnits="userSpaceOnUse">
<stop stop-color="#8844EE"/>
<stop offset="1" stop-color="#B07DFB"/>
</linearGradient>
</defs>
</svg>
