<svg width="79" height="75" viewBox="0 0 79 75" fill="none" xmlns="http://www.w3.org/2000/svg">
<path fill-rule="evenodd" clip-rule="evenodd" d="M32.1644 53.4994L33.5944 53.5455C33.6285 53.5467 33.6591 53.5695 33.6699 53.6018L34.2909 55.4648C34.4933 56.072 35.1496 56.4002 35.7568 56.1978C36.3641 55.9954 36.6922 55.3391 36.4898 54.7318L35.8688 52.8694C35.5526 51.9203 34.6687 51.2609 33.6687 51.2286C33.2807 51.2161 32.9928 51.2103 32.7791 51.206H32.7791C32.2154 51.1946 32.1677 51.1936 32.159 51.1076L31.2841 42.1789C31.1667 40.9842 30.181 39.9758 28.7648 40.0153L28.7515 40.0156C28.6566 40.0176 28.4508 40.022 28.3635 39.9895C28.3528 39.965 27.2862 36.457 27.2784 36.4312C27.0509 35.6827 26.4712 35.0916 25.7286 34.8485C24.655 34.4971 23.8096 34.2244 23.1336 34.0063C21.2595 33.4017 20.6872 33.217 20.1629 32.9412C19.9324 32.8199 19.7112 32.681 19.3927 32.481C19.2055 32.3634 18.9846 32.2247 18.7084 32.0561H18.7078C18.6814 32.0399 18.6665 32.0112 18.6683 31.9806L18.7234 31.047C18.8288 29.2511 16.9963 27.9833 15.3549 28.7109C14.3539 29.1539 13.5463 29.5137 12.9027 29.8004L12.902 29.8007C11.6553 30.3562 11.0244 30.6373 10.7953 30.7171C10.2469 30.6818 9.84664 30.6596 9.5545 30.6435L9.55439 30.6435C8.79113 30.6012 8.76586 30.5998 8.76283 30.5111L8.75145 30.1781C8.7251 29.4128 8.32986 28.6996 7.69509 28.2714C7.06032 27.8426 6.25128 27.7432 5.53148 28.0049C5.50692 28.0133 5.4686 28.0127 5.44105 27.9815L2.33905 24.4711C2.31869 24.4484 2.3127 24.4166 2.32288 24.3885L3.47565 21.1595C3.48583 21.132 3.50978 21.1116 3.53793 21.1056L8.055 20.2188C9.09938 20.0134 9.87308 19.1642 9.98087 18.1048C10.1305 16.629 10.2551 15.4945 10.3532 14.6008C10.5848 12.4923 10.6691 11.724 10.5877 10.9737C10.541 10.5435 10.4398 10.1193 10.2805 9.45189C10.1854 9.05323 10.0696 8.56779 9.93237 7.94249L9.93231 7.94225C9.92873 7.92499 9.92576 7.91066 9.92902 7.89793C9.94498 7.83577 10.1099 7.81184 11.08 7.67101C11.5339 7.60514 12.1639 7.51369 13.0374 7.38078C13.0661 7.37718 13.0937 7.38736 13.1122 7.40832L14.9459 9.51385C15.6908 10.3696 16.9484 10.5852 17.9359 10.0283L20.4259 8.62397C21.4182 8.06406 21.8817 6.87236 21.5295 5.78965L20.763 3.43441C20.7277 3.33009 20.7491 3.32659 23.2159 2.92301C24.0911 2.77982 25.2742 2.58626 26.8718 2.31996C26.877 2.31905 26.8816 2.31758 26.8859 2.31621C26.8916 2.31443 26.8967 2.31281 26.9018 2.31277C26.9535 2.31239 27.0063 2.47223 27.5906 4.2403C27.8402 4.99536 28.1866 6.04372 28.6713 7.49815C29.0666 8.68266 30.2816 9.36115 31.4967 9.0767L34.746 8.31617C35.9425 8.03591 36.4826 7.00949 36.582 6.32921C36.5839 6.32617 36.5856 6.32323 36.5872 6.32043C36.5904 6.31463 36.5933 6.30943 36.5973 6.30513C36.6311 6.26802 36.7386 6.29812 37.7747 6.58803C38.291 6.7325 39.0379 6.9415 40.1212 7.23885C41.0871 7.50414 42.1279 7.13465 42.71 6.31903L43.5909 5.08601C43.631 5.02912 43.7125 5.0429 43.7358 5.10458C44.0777 5.99875 44.3599 6.74988 44.5979 7.38331L44.5981 7.38406C45.7718 10.5081 45.8696 10.7685 46.7444 11.2056L50.1296 12.8985C50.7027 13.1854 51.3986 12.953 51.6848 12.3805C51.9711 11.808 51.7393 11.1116 51.1662 10.8253L47.7798 9.13179C47.6377 8.87391 47.3484 8.10564 46.8392 6.75336L46.8392 6.75312L46.8388 6.75205C46.5842 6.07599 46.2747 5.25403 45.9012 4.27698C45.2179 2.49063 42.816 2.18283 41.7051 3.73922L40.8242 4.97223C40.8039 5.00038 40.7679 5.01295 40.735 5.00397L37.2887 4.0578C36.6485 3.88234 35.9574 3.98115 35.3921 4.32968C34.7376 4.73389 34.4843 5.25189 34.2987 5.90224C34.2987 5.95853 34.2765 6.04596 34.2178 6.05973C33.2595 6.28391 32.5786 6.44709 32.0939 6.56322C31.0573 6.81165 30.9189 6.84481 30.8847 6.7994C30.8794 6.7924 30.8766 6.78354 30.8733 6.77332C30.8725 6.77088 30.8717 6.76836 30.8709 6.76577L29.163 1.64267C28.7869 0.514452 27.6629 -0.162239 26.4904 0.0335822L20.4468 1.04083C18.9976 1.28217 18.1048 2.75712 18.5587 4.15242L19.3252 6.50707C19.3259 6.50922 19.3266 6.51131 19.3273 6.51333C19.3303 6.52217 19.3329 6.52987 19.3332 6.53767C19.3354 6.59086 19.232 6.64843 18.4234 7.09863C18.0507 7.30616 17.5281 7.59713 16.7969 8.00956C16.7628 8.02872 16.7196 8.02154 16.6939 7.99219L14.8602 5.88607C14.3177 5.26267 13.5057 4.96505 12.6888 5.08961L9.65271 5.55131C8.99877 5.65072 8.40891 6.02081 8.03464 6.56575C7.66036 7.1107 7.52682 7.79398 7.66874 8.43953L8.32268 11.4188C8.31014 11.6553 8.23613 12.3774 8.05606 14.1339L8.05596 14.1349C7.96073 15.0638 7.83585 16.2821 7.67473 17.8707C7.67426 17.8754 7.67441 17.8796 7.67454 17.8836C7.67469 17.888 7.67483 17.8921 7.67411 17.8959C7.66578 17.9413 7.54162 17.9654 5.97005 18.27C5.30411 18.399 4.37826 18.5785 3.09119 18.8312C2.26539 18.9935 1.57672 19.587 1.29287 20.3798L0.139501 23.6088C-0.153931 24.4322 0.022727 25.3508 0.601807 26.006L3.70381 29.517C4.36194 30.2607 5.38955 30.523 6.32374 30.1835C6.37884 30.1637 6.43273 30.2027 6.43453 30.2583L6.44651 30.5913C6.48843 31.8303 7.45376 32.825 8.69097 32.904C9.11582 32.9315 9.45688 32.9615 9.74302 32.9867C10.2699 33.0331 10.6105 33.063 10.945 33.0305C11.5571 32.9709 12.1488 32.7019 13.823 31.9407C14.4658 31.6484 15.2682 31.2836 16.2927 30.8302C16.3496 30.8045 16.413 30.847 16.4088 30.9111C16.4041 30.9914 16.3978 31.0758 16.3912 31.1636C16.325 32.0446 16.2335 33.2631 17.5023 34.0358C17.8424 34.2435 18.1073 34.4107 18.3282 34.5501C18.6708 34.7662 18.9076 34.9156 19.1546 35.0458C19.7074 35.337 20.3111 35.5317 22.2659 36.162C22.979 36.392 23.8719 36.6799 25.0076 37.0516C25.0328 37.06 25.0531 37.0804 25.0609 37.1061L26.1328 40.6291C26.5329 41.943 27.5551 42.331 28.8941 42.331C28.8998 42.331 28.905 42.3299 28.9099 42.3288C28.9152 42.3276 28.9202 42.3265 28.9249 42.3272C28.98 42.3346 29.0035 42.5776 29.3019 45.6711C29.4283 46.9813 29.6039 48.8027 29.8523 51.334C29.9696 52.5299 30.9637 53.4605 32.1644 53.4994ZM68.7975 35.4659L68.796 35.4673C66.7647 37.3454 66.6361 37.4643 66.4691 38.2253C65.9681 40.5043 65.5832 42.2652 65.2882 43.6149L65.2881 43.6154C64.7233 46.199 64.4878 47.2765 64.3977 47.599L64.334 47.6907L64.3339 47.6909C63.7187 48.5772 58.8739 55.5573 58.8171 55.5618C57.2659 55.6813 56.0095 55.7734 54.9874 55.8484C51.2648 56.1216 50.6494 56.1667 50.2132 56.4698C50.1268 56.5299 50.0475 56.6 49.9524 56.6841C49.9376 56.6971 49.9225 56.7105 49.9069 56.7242C49.2343 57.3107 48.6683 57.799 48.1913 58.2104L48.1912 58.2105C45.7992 60.274 45.6455 60.4066 45.5072 61.3143C45.3783 62.1619 45.2732 62.8726 45.1868 63.4568L45.1865 63.4589C45.0134 64.6294 44.9154 65.2919 44.8515 65.5307L37.8169 72.6588C37.7845 72.6911 37.7324 72.6917 37.7001 72.6594L32.7177 67.7566C32.7137 67.7528 32.7097 67.7493 32.7059 67.7459C32.6961 67.7373 32.6876 67.7299 32.684 67.7205C32.6593 67.6578 32.8512 67.5099 34.3297 66.3705C35.0919 65.7831 36.196 64.9322 37.7887 63.6935C38.581 63.0773 38.9056 62.0293 38.6043 61.0754L38.1492 59.3992C37.9816 58.7812 37.345 58.4159 36.727 58.5842C36.109 58.7519 35.7443 59.389 35.912 60.0064L35.9772 60.2466C36.1059 60.7209 36.3804 61.7324 36.3934 61.7724C36.4042 61.8053 36.3934 61.8419 36.3659 61.8634L31.3015 65.8026C30.1559 66.6937 30.0577 68.3908 31.0913 69.4088L36.0736 74.3116C37.0162 75.2392 38.5385 75.2278 39.4667 74.287L46.4995 67.1608C47.0977 66.5542 47.1776 65.9425 47.3664 64.4989L47.3664 64.4988C47.4594 63.7876 47.5788 62.8744 47.7996 61.6604C47.9878 61.4505 48.5685 60.9488 49.5906 60.0657C50.0933 59.6313 50.7028 59.1047 51.425 58.4752C51.7716 58.4113 52.8024 58.3352 54.8766 58.1821L54.8768 58.1821L54.8777 58.182C55.953 58.1026 57.3085 58.0025 58.9943 57.8727C59.7165 57.8177 60.3675 57.4446 60.7807 56.8505L66.3044 48.9171C66.331 48.8826 66.355 48.8521 66.3775 48.8206C66.5904 48.5227 66.6754 48.1334 67.7042 43.4216C67.975 42.1808 68.3114 40.6404 68.7327 38.723C68.8912 38.5389 69.384 38.0828 70.2458 37.2853L70.2459 37.2852L70.2476 37.2836C70.6781 36.8852 71.2005 36.4018 71.8191 35.8246C72.2874 35.3874 72.3126 34.6538 71.876 34.1861C71.4395 33.7185 70.7065 33.6927 70.2382 34.1293C69.6739 34.6557 69.1986 35.0951 68.7975 35.4659ZM75.5277 20.9104C76.7434 20.9104 77.7686 21.8207 77.9117 23.0285C78.47 27.7342 78.4922 27.8717 78.4913 28.0091C78.4912 28.0225 78.4909 28.0358 78.4908 28.0534C78.4908 28.6906 78.2309 29.3128 77.7776 29.7607C77.2411 30.2911 76.8078 30.725 76.4534 31.0798C74.9524 32.5824 74.8675 32.6675 74.3612 32.6675C73.3354 32.6675 72.8078 31.4153 73.5468 30.6847L76.1481 28.1121C76.1892 28.0722 75.6983 24.0303 75.6201 23.3869C75.6139 23.3358 75.6103 23.3061 75.6098 23.3016C75.5994 23.2151 75.5691 23.2154 74.8632 23.2225C74.5914 23.2252 74.2193 23.229 73.7097 23.2291C72.8727 23.2291 72.6509 23.0386 69.0996 19.9873C68.1944 19.2095 67.0728 18.2458 65.6696 17.0521C65.303 17.0243 64.4476 17.0695 62.7639 17.1583C61.9396 17.2018 60.9167 17.2558 59.6554 17.3168C58.9805 17.3502 58.9205 17.3191 56.4337 16.0284C55.8909 15.7467 55.2326 15.405 54.4269 14.9909C53.8574 14.698 53.6329 13.9992 53.9257 13.4303C54.2185 12.8608 54.9174 12.6362 55.4863 12.9291C56.3545 13.3752 57.0639 13.7426 57.6349 14.0384C58.7385 14.61 59.3254 14.914 59.5441 15.0016C60.7118 14.9451 61.6761 14.8918 62.4782 14.8475C66.0341 14.6511 66.4013 14.6308 67.1679 15.2831C68.6325 16.5292 69.809 17.5367 70.7444 18.3378C72.5783 19.9082 73.4856 20.6852 73.8199 20.9104H75.5277Z" fill="#8844EE"/>
</svg>
