<svg width="50" height="50" viewBox="0 0 50 50" fill="none" xmlns="http://www.w3.org/2000/svg">
<g clip-path="url(#clip0)">
<path d="M46.0157 13.0628C43.8104 9.2324 40.819 6.19989 37.0407 3.96457C33.2619 1.72913 29.1366 0.611694 24.6618 0.611694C20.1875 0.611694 16.0608 1.72947 12.2828 3.96457C8.50421 6.19978 5.51291 9.2324 3.30757 13.0628C1.10256 16.893 0 21.0757 0 25.6106C0 31.0581 1.56785 35.9567 4.70435 40.3075C7.84051 44.6587 11.892 47.6695 16.8584 49.3403C17.4365 49.4491 17.8644 49.3726 18.1427 49.1128C18.4211 48.8526 18.5601 48.5267 18.5601 48.1366C18.5601 48.0715 18.5546 47.4858 18.5439 46.3789C18.5329 45.2719 18.5277 44.3062 18.5277 43.4823L17.7891 43.6118C17.3182 43.6992 16.7241 43.7363 16.0069 43.7258C15.29 43.7157 14.5457 43.6395 13.7752 43.4979C13.0043 43.3575 12.2873 43.032 11.6236 42.5221C10.9602 42.0121 10.4893 41.3445 10.211 40.5205L9.88986 39.7714C9.67582 39.2727 9.33886 38.7187 8.87851 38.1115C8.41817 37.5037 7.95265 37.0917 7.48173 36.8747L7.2569 36.7115C7.10708 36.6031 6.96807 36.4723 6.83951 36.3206C6.71107 36.1688 6.61491 36.017 6.55069 35.8649C6.48635 35.7127 6.53966 35.5878 6.71118 35.4899C6.8827 35.392 7.19267 35.3444 7.64245 35.3444L8.28444 35.4417C8.71262 35.5287 9.24224 35.7885 9.874 36.2228C10.5054 36.6567 11.0245 37.2208 11.4313 37.9149C11.9239 38.8049 12.5174 39.4831 13.2135 39.9497C13.909 40.4164 14.6103 40.6493 15.3166 40.6493C16.0229 40.6493 16.633 40.595 17.147 40.4871C17.6604 40.3785 18.1421 40.2154 18.5919 39.9985C18.7846 38.5439 19.3091 37.4265 20.1652 36.6454C18.9451 36.5154 17.8481 36.3197 16.8738 36.0594C15.9 35.7988 14.8937 35.3758 13.8556 34.7893C12.8169 34.2036 11.9553 33.4763 11.2704 32.6087C10.5855 31.7406 10.0234 30.6009 9.58483 29.1907C9.14608 27.7799 8.92665 26.1525 8.92665 24.308C8.92665 21.6817 9.77244 19.4469 11.4637 17.6022C10.6714 15.6277 10.7462 13.4143 11.6883 10.9621C12.3091 10.7665 13.2298 10.9133 14.4499 11.4014C15.6702 11.8897 16.5637 12.308 17.1312 12.6548C17.6988 13.0015 18.1535 13.2953 18.4961 13.5336C20.4874 12.9696 22.5424 12.6875 24.6615 12.6875C26.7807 12.6875 28.8362 12.9696 30.8276 13.5336L32.0478 12.7528C32.8822 12.2317 33.8676 11.7542 35.0015 11.3202C36.1361 10.8864 37.0037 10.7669 37.6034 10.9624C38.5664 13.4147 38.6522 15.628 37.8598 17.6025C39.5509 19.4472 40.397 21.6827 40.397 24.3084C40.397 26.1529 40.1768 27.7854 39.7387 29.207C39.3001 30.6289 38.7331 31.7674 38.0376 32.625C37.3413 33.4825 36.4741 34.2041 35.436 34.7896C34.3977 35.3757 33.391 35.7986 32.4173 36.0593C31.443 36.3199 30.3461 36.5158 29.126 36.646C30.2388 37.6222 30.7953 39.163 30.7953 41.2679V48.1357C30.7953 48.5258 30.9291 48.8516 31.197 49.1119C31.4646 49.3717 31.8872 49.4482 32.4653 49.3393C37.4324 47.6687 41.4838 44.6577 44.6199 40.3066C47.7556 35.9557 49.324 31.0572 49.324 25.6097C49.3229 21.0753 48.2197 16.893 46.0157 13.0628Z" fill="white"/>
</g>
<defs>
<clipPath id="clip0">
<rect width="49.3243" height="50" fill="white"/>
</clipPath>
</defs>
</svg>
