<svg width="80" height="65" viewBox="0 0 80 65" fill="none" xmlns="http://www.w3.org/2000/svg">
<path d="M78.6312 31.1494H71.8631C74.6768 24.0584 74.3726 18.3182 73.308 14.4351C71.4829 7.51299 65.3232 0 56.1977 0C53.7643 0 51.3308 0.506493 48.8213 1.51948C44.4867 3.29221 41.597 5.23377 40.3042 6.24675C39.0114 5.23377 36.1977 3.29221 31.7871 1.51948C29.2776 0.506493 26.7681 0 24.4106 0C15.2852 0 9.12547 7.51299 7.30038 14.4351C6.23574 18.5714 5.85551 24.8182 9.42966 32.6688H1.21673C0.532319 32.6688 0 33.2597 0 34.0195C0 34.7792 0.532319 35.3701 1.21673 35.3701H10.8745C11.2548 36.1299 11.711 36.8896 12.2433 37.6494C20.1521 50.3117 37.3384 64.0714 40.4563 64.9156V65C40.4563 65 40.5323 65 40.6084 64.9156C40.6844 64.9156 40.7605 64.9156 40.8365 64.9156V64.8312C43.4981 63.3961 60 51.5779 68.6692 37.5649C69.5057 36.2987 70.1901 35.0325 70.7985 33.7662H78.7833C79.4677 33.7662 80 33.1753 80 32.4156C80 31.6558 79.3156 31.1494 78.6312 31.1494ZM66.4639 36.1299C58.403 49.2143 43.5741 59.7662 40.3802 62.0455C37.1103 59.7662 22.3574 49.1299 14.2205 36.1299C14.0684 35.8766 13.9164 35.6234 13.7643 35.3701H24.943C25.3992 35.3701 25.8555 35.1169 26.0837 34.6104L31.1787 23.4675L39.1635 46.1753C39.3156 46.6818 39.8479 47.0195 40.3042 47.0195C40.3042 47.0195 40.3042 47.0195 40.3802 47.0195C40.9125 47.0195 41.3688 46.5974 41.5209 46.0065L48.5171 19.4156L52.2433 32.8377C52.3954 33.3442 52.7757 33.6818 53.2319 33.7662C53.6882 33.8506 54.1445 33.5974 54.4487 33.1753L57.4145 28.3636L59.924 33.0909C60.1521 33.513 60.5323 33.7662 60.9886 33.7662H67.8327C67.3764 34.6104 66.9202 35.3701 66.4639 36.1299ZM69.2015 31.1494H61.7491L58.6312 25.2403C58.403 24.8182 58.0228 24.5649 57.5665 24.5649C57.1103 24.5649 56.73 24.7338 56.5019 25.1558L53.9164 29.3766L49.7338 14.2662C49.5817 13.6753 49.0494 13.3377 48.5171 13.2532C47.9848 13.2532 47.4525 13.6753 47.3004 14.2662L40.2281 41.3636L32.5475 19.5844C32.3954 19.0779 31.9392 18.7403 31.4829 18.7403C30.9506 18.7403 30.5703 18.9935 30.3422 19.5L24.3346 32.5844H12.2433C9.20152 26.4221 8.36502 20.513 9.73384 15.1948C11.3308 9.2013 16.5779 2.78571 24.4867 2.78571C26.616 2.78571 28.8213 3.29221 31.0266 4.13636C36.5779 6.41558 39.5437 9.03247 39.6198 9.03247C40.076 9.45455 40.6844 9.45455 41.1407 9.03247C41.1407 9.03247 44.1065 6.41558 49.7338 4.13636C51.9392 3.20779 54.1445 2.78571 56.2738 2.78571C64.1065 2.78571 69.4297 9.2013 71.0266 15.1948C72.3194 20.0909 71.635 25.4935 69.2015 31.1494Z" fill="#8844EE"/>
</svg>
