<svg width="50" height="50" viewBox="0 0 50 50" fill="none" xmlns="http://www.w3.org/2000/svg">
<g clip-path="url(#clip0)">
<path d="M49.9511 14.7001C49.8339 12.0434 49.4043 10.217 48.7889 8.63435C48.154 6.95441 47.1773 5.45036 45.8976 4.20004C44.6472 2.93026 43.1333 1.94359 41.4728 1.31862C39.881 0.703186 38.0641 0.273567 35.4074 0.156433C32.7308 0.0293789 31.8811 0 25.0927 0C18.3043 0 17.4546 0.0293789 14.788 0.146513C12.1313 0.263647 10.3048 0.693648 8.72256 1.3087C7.04224 1.94359 5.53819 2.92034 4.28787 4.20004C3.01809 5.45036 2.0318 6.96433 1.40645 8.62481C0.791016 10.217 0.361397 12.0335 0.244263 14.6902C0.117208 17.3668 0.0878296 18.2164 0.0878296 25.0049C0.0878296 31.7933 0.117208 32.643 0.234343 35.3096C0.351477 37.9663 0.781477 39.7928 1.39691 41.3754C2.0318 43.0554 3.01809 44.5594 4.28787 45.8097C5.53819 47.0795 7.05216 48.0662 8.71264 48.6912C10.3048 49.3066 12.1214 49.7362 14.7784 49.8533C17.4447 49.9709 18.2947 49.9999 25.0832 49.9999C31.8716 49.9999 32.7213 49.9709 35.3879 49.8533C38.0446 49.7362 39.8711 49.3066 41.4533 48.6912C44.8136 47.392 47.4703 44.7353 48.7694 41.3754C49.3845 39.7832 49.8145 37.9663 49.9316 35.3096C50.0488 32.643 50.0781 31.7933 50.0781 25.0049C50.0781 18.2164 50.0682 17.3668 49.9511 14.7001ZM45.4485 35.1143C45.3409 37.5562 44.9307 38.8748 44.5889 39.7539C43.7487 41.9321 42.0199 43.6609 39.8417 44.501C38.9626 44.8429 37.6345 45.2531 35.2021 45.3603C32.5649 45.4778 31.7739 45.5068 25.1026 45.5068C18.4313 45.5068 17.6305 45.4778 15.0028 45.3603C12.5609 45.2531 11.2423 44.8429 10.3632 44.501C9.27923 44.1004 8.29256 43.4655 7.4917 42.6353C6.66146 41.8245 6.02657 40.8478 5.62594 39.7638C5.28408 38.8847 4.87392 37.5562 4.76671 35.1242C4.64919 32.487 4.62019 31.6956 4.62019 25.0243C4.62019 18.353 4.64919 17.5522 4.76671 14.9249C4.87392 12.483 5.28408 11.1644 5.62594 10.2853C6.02657 9.20094 6.66146 8.21465 7.50162 7.41341C8.31202 6.58317 9.28877 5.94828 10.3731 5.54804C11.2522 5.20617 12.5807 4.79601 15.0127 4.68842C17.6499 4.57128 18.4413 4.5419 25.1122 4.5419C31.7934 4.5419 32.5843 4.57128 35.212 4.68842C37.6539 4.79601 38.9725 5.20617 39.8516 5.54804C40.9356 5.94828 41.9222 6.58317 42.7231 7.41341C43.5533 8.22419 44.1882 9.20094 44.5889 10.2853C44.9307 11.1644 45.3409 12.4925 45.4485 14.9249C45.5656 17.5621 45.595 18.353 45.595 25.0243C45.595 31.6956 45.5656 32.4771 45.4485 35.1143Z" fill="white"/>
<path d="M25.0927 12.1605C18.0017 12.1605 12.2484 17.9134 12.2484 25.0048C12.2484 32.0962 18.0017 37.8491 25.0927 37.8491C32.1841 37.8491 37.937 32.0962 37.937 25.0048C37.937 17.9134 32.1841 12.1605 25.0927 12.1605ZM25.0927 33.3366C20.4924 33.3366 16.7609 29.6055 16.7609 25.0048C16.7609 20.4042 20.4924 16.673 25.0927 16.673C29.6934 16.673 33.4245 20.4042 33.4245 25.0048C33.4245 29.6055 29.6934 33.3366 25.0927 33.3366Z" fill="white"/>
<path d="M41.4438 11.6527C41.4438 13.3086 40.1011 14.6513 38.4448 14.6513C36.7889 14.6513 35.4463 13.3086 35.4463 11.6527C35.4463 9.99645 36.7889 8.65417 38.4448 8.65417C40.1011 8.65417 41.4438 9.99645 41.4438 11.6527Z" fill="white"/>
</g>
<defs>
<clipPath id="clip0">
<rect width="50" height="50" fill="white"/>
</clipPath>
</defs>
</svg>
