<svg width="197" height="45" viewBox="0 0 197 45" fill="none" xmlns="http://www.w3.org/2000/svg">
<g id="Logotipo">
<path id="COVID-19" d="M66.63 36.42C64.1333 36.42 61.87 35.8833 59.84 34.81C57.8333 33.7133 56.2467 32.2083 55.08 30.295C53.9367 28.3583 53.365 26.1767 53.365 23.75C53.365 21.3233 53.9367 19.1533 55.08 17.24C56.2467 15.3033 57.8333 13.7983 59.84 12.725C61.87 11.6283 64.145 11.08 66.665 11.08C68.7883 11.08 70.7017 11.4533 72.405 12.2C74.1317 12.9467 75.5783 14.02 76.745 15.42L73.105 18.78C71.4483 16.8667 69.395 15.91 66.945 15.91C65.4283 15.91 64.075 16.2483 62.885 16.925C61.695 17.5783 60.7617 18.5 60.085 19.69C59.4317 20.88 59.105 22.2333 59.105 23.75C59.105 25.2667 59.4317 26.62 60.085 27.81C60.7617 29 61.695 29.9333 62.885 30.61C64.075 31.2633 65.4283 31.59 66.945 31.59C69.395 31.59 71.4483 30.6217 73.105 28.685L76.745 32.045C75.5783 33.4683 74.1317 34.5533 72.405 35.3C70.6783 36.0467 68.7533 36.42 66.63 36.42ZM88.4263 36.42C85.8829 36.42 83.5846 35.8717 81.5313 34.775C79.5013 33.6783 77.9029 32.1733 76.7363 30.26C75.5929 28.3233 75.0213 26.1533 75.0213 23.75C75.0213 21.3467 75.5929 19.1883 76.7363 17.275C77.9029 15.3383 79.5013 13.8217 81.5313 12.725C83.5846 11.6283 85.8829 11.08 88.4263 11.08C90.9696 11.08 93.2563 11.6283 95.2863 12.725C97.3163 13.8217 98.9146 15.3383 100.081 17.275C101.248 19.1883 101.831 21.3467 101.831 23.75C101.831 26.1533 101.248 28.3233 100.081 30.26C98.9146 32.1733 97.3163 33.6783 95.2863 34.775C93.2563 35.8717 90.9696 36.42 88.4263 36.42ZM88.4263 31.59C89.8729 31.59 91.1796 31.2633 92.3463 30.61C93.5129 29.9333 94.4229 29 95.0763 27.81C95.7529 26.62 96.0913 25.2667 96.0913 23.75C96.0913 22.2333 95.7529 20.88 95.0763 19.69C94.4229 18.5 93.5129 17.5783 92.3463 16.925C91.1796 16.2483 89.8729 15.91 88.4263 15.91C86.9796 15.91 85.6729 16.2483 84.5063 16.925C83.3396 17.5783 82.4179 18.5 81.7413 19.69C81.0879 20.88 80.7613 22.2333 80.7613 23.75C80.7613 25.2667 81.0879 26.62 81.7413 27.81C82.4179 29 83.3396 29.9333 84.5063 30.61C85.6729 31.2633 86.9796 31.59 88.4263 31.59ZM125.327 11.5L114.722 36H109.122L98.5522 11.5H104.677L112.132 29L119.692 11.5H125.327ZM123.873 11.5H129.543V36H123.873V11.5ZM131.857 11.5H142.987C145.647 11.5 147.992 12.0133 150.022 13.04C152.075 14.0433 153.662 15.4667 154.782 17.31C155.925 19.1533 156.497 21.3 156.497 23.75C156.497 26.2 155.925 28.3467 154.782 30.19C153.662 32.0333 152.075 33.4683 150.022 34.495C147.992 35.4983 145.647 36 142.987 36H131.857V11.5ZM142.707 31.345C145.157 31.345 147.105 30.6683 148.552 29.315C150.022 27.9383 150.757 26.0833 150.757 23.75C150.757 21.4167 150.022 19.5733 148.552 18.22C147.105 16.8433 145.157 16.155 142.707 16.155H137.527V31.345H142.707ZM156.325 23.96H166.23V28.335H156.325V23.96ZM174.569 11.5V36H168.899V16.05H163.999V11.5H174.569ZM183.935 11.08C187.365 11.08 190.048 12.13 191.985 14.23C193.922 16.3067 194.89 19.305 194.89 23.225C194.89 26.0017 194.365 28.3817 193.315 30.365C192.288 32.3483 190.83 33.8533 188.94 34.88C187.05 35.9067 184.868 36.42 182.395 36.42C181.088 36.42 179.84 36.28 178.65 36C177.46 35.6967 176.445 35.2767 175.605 34.74L177.705 30.575C178.895 31.3917 180.423 31.8 182.29 31.8C184.367 31.8 186.012 31.1933 187.225 29.98C188.438 28.7433 189.092 26.97 189.185 24.66C187.715 26.13 185.685 26.865 183.095 26.865C181.532 26.865 180.108 26.55 178.825 25.92C177.542 25.29 176.527 24.4033 175.78 23.26C175.033 22.0933 174.66 20.7517 174.66 19.235C174.66 17.6017 175.068 16.1667 175.885 14.93C176.702 13.6933 177.81 12.7483 179.21 12.095C180.633 11.4183 182.208 11.08 183.935 11.08ZM184.355 22.63C185.592 22.63 186.595 22.2917 187.365 21.615C188.158 20.915 188.555 20.0283 188.555 18.955C188.555 17.8817 188.17 17.0067 187.4 16.33C186.653 15.6533 185.615 15.315 184.285 15.315C183.072 15.315 182.08 15.6417 181.31 16.295C180.563 16.9483 180.19 17.835 180.19 18.955C180.19 20.075 180.563 20.9733 181.31 21.65C182.08 22.3033 183.095 22.63 184.355 22.63Z" fill="#8844EE"/>
<g id="LOGO">
<g id="XMLID 107">
<g id="Group">
<path id="Vector" d="M45.7529 20.5877C45.9201 22.7506 44.3985 24.6707 42.3556 24.8756C40.7916 25.0324 39.3768 24.138 38.7232 22.7411L36.8692 22.9045L35.4695 23.5798C35.1493 23.7338 34.9339 24.0398 34.8848 24.3911C34.7526 25.3384 34.5127 26.2508 34.1793 27.1178C34.066 27.4116 34.0858 27.7393 34.2397 28.0132L34.7384 28.9048L36.1249 29.8351C36.856 29.5555 37.7069 29.6226 38.4068 30.092C39.593 30.8882 39.8773 32.5269 38.9952 33.6801C38.2358 34.6737 36.8238 34.9466 35.749 34.3081C35.0643 33.902 34.6506 33.2277 34.5495 32.507L33.0129 31.4766L32.0457 31.3585C31.7133 31.3179 31.3827 31.4322 31.1409 31.6636C30.3249 32.4409 29.4031 33.1087 28.401 33.6432C28.0638 33.8227 27.8475 34.1674 27.8239 34.548L27.7011 36.5069L28.3094 38.92C29.3445 39.209 30.2002 40.0298 30.4817 41.1462C30.9067 42.8339 29.8583 44.5463 28.1488 44.9269C26.6065 45.2707 25.0245 44.3715 24.5343 42.8689C24.1527 41.6958 24.5031 40.4831 25.3097 39.6907L24.6986 37.2634L23.7551 35.7466C23.502 35.3395 23.0543 35.0987 22.5745 35.0996C22.5717 35.0996 22.5698 35.0996 22.567 35.0996C21.7405 35.0996 20.9321 35.0174 20.15 34.8635C19.6844 34.7709 19.2037 34.9183 18.8769 35.263L17.6302 36.5787L16.2342 39.4744C16.561 40.1384 16.5903 40.9403 16.2446 41.659C15.6232 42.9473 14.0383 43.4592 12.7718 42.747C11.6875 42.136 11.2181 40.7873 11.6904 39.635C12.0124 38.8492 12.6802 38.3241 13.4358 38.1484L14.8402 35.2337L15.116 33.2777C15.166 32.9169 15.0281 32.5533 14.7448 32.3247C13.6275 31.418 12.6698 30.3234 11.9208 29.088C11.7348 28.7811 11.4004 28.595 11.0415 28.5922L9.08833 28.5733L6.95003 29.2457C6.79986 30.5756 5.88939 31.7571 4.53123 32.184C2.7065 32.7583 0.762764 31.7552 0.170577 29.9418C-0.42161 28.1294 0.578591 26.1469 2.38915 25.5481C3.65664 25.1288 4.98835 25.4773 5.88939 26.3339L8.15896 25.6199L9.81652 24.4384C10.063 24.2636 10.1943 23.9708 10.1698 23.6705C10.1424 23.3371 10.1282 23.0009 10.1282 22.6608C10.1282 20.8135 10.5343 19.0596 11.2597 17.4823C11.3655 17.2509 11.3626 16.9845 11.2512 16.756L10.7601 15.752L9.4274 14.7461C8.68126 14.9851 7.83595 14.8708 7.16348 14.3636C6.02256 13.5023 5.82988 11.8504 6.77436 10.7482C7.58755 9.79896 9.01277 9.6044 10.0508 10.3014C10.7119 10.7453 11.0878 11.4405 11.1482 12.1658L12.6254 13.2803L14.1139 13.5457C15.1972 12.5398 16.46 11.7247 17.8474 11.1533L18.1969 9.03016L17.7558 6.83708C16.4505 6.50085 15.3908 5.50065 15.1056 4.16704C14.7032 2.28281 15.9981 0.447694 17.9985 0.0689589C19.998 -0.309776 21.9455 0.909543 22.3478 2.79378C22.6491 4.20388 22.0003 5.58565 20.8159 6.35068L21.2324 8.41908L22.2553 10.0511C22.3223 10.1579 22.4395 10.2221 22.5651 10.2221H22.567C24.9093 10.2221 27.1023 10.8738 28.9752 12.0053C29.0782 12.0666 29.2047 12.0752 29.3134 12.0241L30.9152 11.2818L32.7853 9.25872C32.6729 8.53336 32.8797 7.76456 33.4171 7.1837C34.388 6.13439 36.0503 6.10794 37.0533 7.15726C37.9327 8.07812 37.9667 9.54679 37.1317 10.5083C36.5915 11.1307 35.8161 11.4178 35.0586 11.3611L33.1885 13.3842L32.5812 15.0181C32.5387 15.1315 32.5576 15.258 32.6285 15.3563C33.3661 16.3687 33.9545 17.4964 34.3606 18.7073C34.473 19.0397 34.7375 19.2985 35.0756 19.3939L36.5962 19.8199L38.5721 19.6451C39.0566 18.2483 40.2665 17.1914 41.7521 17.0422C43.795 16.8372 45.5867 18.4249 45.7529 20.5877Z" fill="#8844EE"/>
</g>
</g>
<g id="XMLID 8">
<g id="Group_2">
<path id="Vector_2" d="M22.5672 31.8714C27.654 31.8714 31.7777 27.7477 31.7777 22.6609C31.7777 17.574 27.654 13.4503 22.5672 13.4503C17.4803 13.4503 13.3566 17.574 13.3566 22.6609C13.3566 27.7477 17.4803 31.8714 22.5672 31.8714Z" fill="#B07DFB"/>
</g>
</g>
<path id="Vector_3" d="M16.164 22.6609C16.164 18.0512 19.5501 14.2326 23.9708 13.5566C23.5132 13.4866 23.0444 13.4503 22.5672 13.4503C17.4802 13.4503 13.3566 17.5739 13.3566 22.6609C13.3566 27.7478 17.4802 31.8714 22.5672 31.8714C23.0444 31.8714 23.5132 31.8352 23.9708 31.7652C19.5502 31.0891 16.164 27.2705 16.164 22.6609Z" fill="#9E6BEA"/>
<g id="Group_3">
<path id="Vector_4" d="M7.06962 5.91598C8.51821 5.91598 9.69253 4.74166 9.69253 3.29307C9.69253 1.84448 8.51821 0.670166 7.06962 0.670166C5.62103 0.670166 4.44672 1.84448 4.44672 3.29307C4.44672 4.74166 5.62103 5.91598 7.06962 5.91598Z" fill="#8844EE"/>
<path id="Vector_5" d="M6.35288 39.5996C7.30968 39.5996 8.08533 38.824 8.08533 37.8672C8.08533 36.9103 7.30968 36.1347 6.35288 36.1347C5.39607 36.1347 4.62042 36.9103 4.62042 37.8672C4.62042 38.824 5.39607 39.5996 6.35288 39.5996Z" fill="#8844EE"/>
<path id="Vector_6" d="M38.1619 43.2649C39.5712 43.2649 40.7137 42.1224 40.7137 40.7131C40.7137 39.3038 39.5712 38.1613 38.1619 38.1613C36.7526 38.1613 35.6101 39.3038 35.6101 40.7131C35.6101 42.1224 36.7526 43.2649 38.1619 43.2649Z" fill="#8844EE"/>
<path id="Vector_7" d="M19.7395 22.5C21.0534 22.5 22.1186 21.4348 22.1186 20.1209C22.1186 18.807 21.0534 17.7419 19.7395 17.7419C18.4256 17.7419 17.3605 18.807 17.3605 20.1209C17.3605 21.4348 18.4256 22.5 19.7395 22.5Z" fill="#8844EE"/>
<path id="Vector_8" d="M21.6495 29.1296C22.5438 29.1296 23.2688 28.4046 23.2688 27.5103C23.2688 26.616 22.5438 25.891 21.6495 25.891C20.7551 25.891 20.0302 26.616 20.0302 27.5103C20.0302 28.4046 20.7551 29.1296 21.6495 29.1296Z" fill="#8844EE"/>
<path id="Vector_9" d="M26.734 24.0206C27.485 24.0206 28.0938 23.4119 28.0938 22.6609C28.0938 21.9099 27.485 21.3011 26.734 21.3011C25.9831 21.3011 25.3743 21.9099 25.3743 22.6609C25.3743 23.4119 25.9831 24.0206 26.734 24.0206Z" fill="#8844EE"/>
</g>
</g>
</g>
</svg>
