<svg width="75" height="75" viewBox="0 0 75 75" fill="none" xmlns="http://www.w3.org/2000/svg">
<path fill-rule="evenodd" clip-rule="evenodd" d="M47.2101 1.29362C56.8831 3.88552 64.9678 10.089 69.9749 18.7617C74.5146 26.6247 76.0476 35.8554 74.2918 44.7528C72.5523 53.5652 67.7227 61.457 60.6926 66.9747C60.056 67.4743 59.1355 67.3633 58.6361 66.7268C58.1364 66.0903 58.2475 65.1697 58.884 64.6703C68.6214 57.0276 73.2282 44.8741 71.7622 33.1252C71.5647 33.9674 71.1515 34.7271 70.5512 35.3275L69.6033 36.2754C69.3258 36.5531 68.9519 36.7044 68.5676 36.7044C68.462 36.7044 68.3558 36.693 68.2503 36.6697C67.762 36.5613 67.3624 36.2109 67.1913 35.7404L65.1998 30.2644C65.169 30.1799 65.1241 30.1028 65.0659 30.0347L63.2614 27.9219C63.1193 27.7555 62.9123 27.6602 62.6936 27.6602H61.9941L62.072 27.7772C62.4595 28.3583 62.3827 29.1316 61.8891 29.6254C59.9567 31.5576 57.5799 33.0788 55.0157 34.0245L53.912 34.4314C53.2214 34.6869 52.4477 34.3884 52.1068 33.7351L48.3162 26.4742C48.207 26.2649 48.1498 26.0323 48.1498 25.7963V24.7697L46.1046 22.8175L43.9478 22.0595C43.1846 21.7913 42.7834 20.9553 43.0516 20.1919C43.3196 19.4289 44.1555 19.0271 44.9191 19.2957L47.3735 20.1582C47.5696 20.2272 47.7489 20.3371 47.8993 20.4807L50.6259 23.0835C50.9155 23.3597 51.0792 23.7427 51.0792 24.1429V25.4368L54.1071 31.2366C55.8649 30.5742 57.5158 29.592 58.9431 28.3646L58.7196 28.029C58.2847 27.3769 58.2443 26.5422 58.6141 25.8511C58.984 25.1601 59.7006 24.7306 60.4847 24.7306H62.6936C63.7704 24.7306 64.789 25.2001 65.4887 26.0191L67.2932 28.1319C67.58 28.4675 67.8021 28.8482 67.9528 29.2633L68.9645 32.0453L68.9649 32.0314L68.9653 32.01C68.9835 30.9244 69.4584 29.8872 70.2689 29.164L70.8899 28.6103C70.1292 25.7255 68.985 22.9051 67.4382 20.2261C61.6313 10.1681 51.4975 4.13206 40.7317 3.10798L36.5183 8.39301C36.3465 8.60849 36.1174 8.77109 35.8575 8.8622L26.3795 12.1851L24.23 17.3954L26.4148 20.4559C27.6129 18.5222 29.7506 17.2936 32.085 17.2936H32.9177C33.7265 17.2936 34.3824 17.9495 34.3824 18.7583C34.3824 19.567 33.7265 20.223 32.9177 20.223H32.085C30.5126 20.223 29.0993 21.2173 28.5682 22.6973L28.5321 22.7978C29.2319 22.7192 29.9391 22.6938 30.579 22.671C30.9863 22.6567 31.3714 22.6431 31.6758 22.6176C32.2117 22.572 34.928 22.4365 35.7462 24.1674C35.8912 24.4741 36.0297 24.9653 35.8767 25.5773L35.905 25.5962C36.3588 25.8987 37.0962 26.3902 37.6325 26.6475C37.7913 26.2602 38.0624 26.0193 38.154 25.9459C38.5006 25.6681 38.9673 25.4749 39.7154 25.2996C39.9946 25.2339 40.2873 25.252 40.5569 25.3516C40.8788 25.4704 41.3667 25.6025 41.8836 25.7424L41.8847 25.7427C43.4215 26.1589 45.1631 26.6306 46.087 27.6096C47.115 28.6993 47.719 30.2624 48.2518 31.6415L48.2521 31.6422C48.4535 32.1634 48.6438 32.6558 48.8342 33.0627C48.9391 33.2867 49.0426 33.5174 49.1475 33.7512L49.1531 33.7638L49.1532 33.7639C49.6894 34.9599 50.2439 36.1965 51.1501 36.789C51.3553 36.9231 51.9993 37.022 52.4266 37.0876L52.4267 37.0877L52.4268 37.0877L52.4287 37.0879C53.5106 37.2538 54.8572 37.4603 55.3871 38.6893C55.9275 39.9427 55.0543 41.2072 54.7671 41.623L54.767 41.6231C54.1109 42.5729 53.2621 43.3634 52.4412 44.1279C50.5475 45.8914 49.7642 46.8154 50.212 48.2602C50.7442 49.9773 51.2467 51.599 49.2956 53.722C49.1803 53.8474 49.073 53.962 48.9722 54.0691L48.9709 54.0705C48.3932 54.6858 48.2185 54.8718 47.9781 55.6288C47.6617 56.6259 47.1732 57.176 46.7805 57.6182L46.7805 57.6182L46.7801 57.6187L46.7795 57.6193C46.5845 57.839 46.4304 58.0126 46.2996 58.2366C46.2143 58.3826 46.1694 58.6059 46.1127 58.8887L46.1122 58.8911C45.998 59.4619 45.8414 60.2434 45.2056 61.0239C44.1934 62.2668 41.99 64.2274 39.8784 64.2275C39.4445 64.2277 39.015 64.1449 38.6 63.9562C37.8077 63.5959 36.8204 62.7008 35.5033 58.7928C35.3398 58.307 35.0903 57.7575 34.8259 57.1753L34.8254 57.1743C34.011 55.3804 33.0878 53.3469 33.7501 51.2968C33.7883 51.1779 33.8264 51.0619 33.8637 50.9482C34.2997 49.6196 34.4986 49.0133 34.0417 47.9185C33.9698 47.746 33.7363 47.4891 33.5106 47.2408L33.5104 47.2407L33.5104 47.2406C33.0563 46.7409 32.4912 46.1188 32.2725 45.2187C32.136 44.6561 32.139 44.1633 32.1418 43.7672C32.1458 43.1448 32.1277 43.1101 31.9318 42.9265C31.5289 42.5495 31.1311 42.5805 29.8752 42.8912C29.4198 43.004 28.9492 43.1205 28.4444 43.1797C25.3459 43.5441 22.4429 42.2987 20.682 39.8487C18.8609 37.3148 18.5833 33.9337 19.9576 31.0246C20.5827 29.7022 21.4625 28.7121 22.3134 27.7548C22.476 27.572 22.6401 27.3874 22.804 27.1985C22.9924 26.9814 23.2651 26.5945 23.5538 26.1847L23.5541 26.1842C24.2129 25.2493 24.7644 24.4964 25.331 23.9794L21.3747 18.4376C21.0816 18.0269 21.0205 17.4946 21.2129 17.028L23.9217 10.4614C24.0807 10.0755 24.3972 9.77583 24.7911 9.63784L34.4906 6.23748L37.1062 2.95637C31.3583 3.01335 25.5493 4.50266 20.2263 7.57592C18.7755 8.41337 17.4104 9.34267 16.1301 10.3492C17.3123 11.0858 18.2574 12.1789 18.7985 13.4919C19.7158 15.7178 19.247 18.2935 17.6045 20.0539L15.9971 21.7763L12.0094 28.738C11.9046 28.9208 11.7617 29.0789 11.5903 29.2015L9.0177 31.041L10.8138 33.6754C11.0952 34.0882 11.1469 34.6157 10.9509 35.0751C10.7549 35.5343 10.3384 35.8625 9.84578 35.9449C9.83362 35.947 8.60432 36.1528 7.36857 36.3355C6.06559 36.5279 5.27648 36.6341 4.74342 36.6343C4.16334 36.6343 3.88707 36.5083 3.58209 36.2306C3.47603 36.1339 3.3855 36.0223 3.31241 35.9005C3.25337 35.8393 3.15743 35.746 3.01006 35.6087C2.93477 36.9371 2.93594 38.2724 3.01519 39.6082L6.74997 38.395C7.20671 38.2468 7.70695 38.3316 8.08913 38.6222L14.4683 43.4723L17.7744 44.1183C19.0563 44.369 20.1703 45.159 20.8311 46.2856C21.4919 47.4123 21.6374 48.7701 21.2303 50.0111C21.122 50.3413 21.1215 50.6907 21.2288 51.0211L21.6929 52.4492C22.469 54.839 21.1565 57.4148 18.7669 58.1912L18.1345 58.3965L16.8221 65.2469C26.0658 72.1853 38.4382 74.1812 49.8669 69.7885C50.6218 69.4977 51.4693 69.8749 51.7597 70.6301C52.05 71.3852 51.6732 72.2326 50.9181 72.5228C46.6245 74.173 42.0821 75 37.5316 75C33.3464 75 29.1547 74.3008 25.1394 72.8998C16.6688 69.9441 9.53025 64.0318 5.03888 56.2524C0.0318776 47.5799 -1.29821 37.4764 1.29355 27.8036C3.88531 18.1307 10.0889 10.0459 18.7614 5.03894C27.4341 0.0319431 37.5374 -1.29829 47.2101 1.29362ZM12.9661 46.0105L6.92604 41.418L3.32046 42.5895C3.93717 46.7725 5.33639 50.9094 7.57585 54.7879C9.41145 57.9673 11.6729 60.7535 14.2485 63.1108L15.4201 56.9952C15.5205 56.4711 15.8981 56.0428 16.406 55.8779L17.8616 55.4049C18.7149 55.1276 19.1839 54.2075 18.9066 53.3541L18.4425 51.9261C18.1418 51.0008 18.1433 50.0227 18.4465 49.0979C18.5939 48.6481 18.5435 48.1757 18.304 47.7674C18.0645 47.359 17.6769 47.0842 17.2122 46.9934L13.5718 46.2821C13.3518 46.2392 13.1446 46.1463 12.9661 46.0105ZM13.7396 19.9015L15.4627 18.0553C16.3255 17.1305 16.5719 15.7773 16.09 14.6081C15.6617 13.5685 14.7848 12.7714 13.7164 12.435C8.13645 17.7297 4.58858 24.666 3.39898 32.0288C4.12027 32.66 4.60411 33.092 4.95231 33.4154C5.04532 33.5019 5.13527 33.5855 5.22125 33.668C5.66862 33.6192 6.34142 33.5272 7.09113 33.4156L5.79049 31.5077C5.34196 30.8497 5.50104 29.9543 6.1488 29.4911L9.62649 27.0044L13.5394 20.1729C13.5955 20.075 13.6627 19.9839 13.7396 19.9015ZM30.6825 25.599H30.6824H30.6823C29.5752 25.6383 28.0589 25.692 27.4057 26.0597C27.085 26.2591 26.3468 27.3069 25.9498 27.8704L25.9498 27.8704L25.9497 27.8704L25.9492 27.8713C25.6168 28.3434 25.3024 28.7893 25.0168 29.1186C24.8523 29.3081 24.6878 29.4933 24.5247 29.6769L24.5034 29.7009C23.7246 30.5768 23.0521 31.3337 22.607 32.2758C21.6873 34.2226 21.8615 36.4692 23.0614 38.1387C24.2083 39.7348 26.0455 40.5112 28.1034 40.27C28.423 40.2325 28.7835 40.1434 29.165 40.0492L29.1723 40.0474C30.4232 39.738 32.3135 39.2706 33.9345 40.7879C35.0842 41.8644 35.0766 43.0208 35.0717 43.7862V43.7864C35.0697 44.0701 35.0681 44.3152 35.1197 44.5275C35.162 44.7015 35.4367 45.0038 35.6791 45.2706L35.681 45.2726L35.681 45.2727L35.6811 45.2727C36.0551 45.6847 36.4791 46.1516 36.7455 46.7902C37.6221 48.8908 37.149 50.3336 36.6477 51.8614C36.6116 51.9708 36.575 52.0827 36.538 52.1973C36.2242 53.1683 36.8692 54.5892 37.493 55.9633L37.4934 55.964C37.7763 56.587 38.0688 57.2313 38.2797 57.8575C39.1351 60.3965 39.7013 61.1302 39.8576 61.2978C39.9946 61.306 40.3965 61.2462 41.085 60.8091C41.8258 60.3385 42.5474 59.6488 42.9342 59.1739C43.1042 58.9653 43.1534 58.7481 43.2402 58.3152C43.3283 57.8753 43.4381 57.3278 43.7704 56.7591C44.0476 56.2846 44.3482 55.946 44.5896 55.6741L44.5897 55.6741L44.5898 55.674L44.5898 55.674C44.8917 55.3341 45.058 55.1469 45.1863 54.7427C45.6281 53.3512 46.1617 52.7831 46.8372 52.064L46.8373 52.0638C46.9312 51.9639 47.0314 51.8573 47.1389 51.7402C47.9278 50.8821 47.9049 50.711 47.4143 49.1278C46.375 45.7749 48.6318 43.6732 50.4451 41.9845L50.4463 41.9834L50.4464 41.9833C51.1577 41.3209 51.8308 40.694 52.3037 40.0343C52.1915 40.0159 52.081 39.9989 51.9847 39.9841L51.9835 39.9839L51.9835 39.9839C51.1866 39.8616 50.2837 39.7231 49.5471 39.2416C47.9219 38.1793 47.1558 36.4704 46.4799 34.9627L46.4577 34.9132C46.3651 34.7069 46.2737 34.5032 46.1809 34.305C45.9476 33.8062 45.7396 33.2684 45.5194 32.6984L45.5188 32.6967L45.5187 32.6967C45.0831 31.5693 44.5895 30.2919 43.9563 29.6206C43.5996 29.2427 41.9852 28.8055 41.1178 28.5707L41.0989 28.5656L41.0987 28.5655L41.098 28.5653C40.8527 28.4988 40.6133 28.4339 40.3853 28.3687C40.2815 28.5649 40.1421 28.7275 39.9933 28.8488C39.9781 28.8628 39.9635 28.8778 39.9487 28.8931L39.9311 28.911L39.9287 28.9135C39.6632 29.1839 39.0467 29.8117 37.9414 29.74C36.7224 29.6623 35.4247 28.7973 34.2799 28.0342L34.2798 28.0341C33.8749 27.7641 33.4925 27.5091 33.2177 27.3621C32.8123 27.1451 32.532 26.7504 32.4616 26.2958C32.4215 26.0374 32.4515 25.777 32.5439 25.5397C32.3369 25.5235 32.1175 25.5205 31.9199 25.537C31.5455 25.5684 31.1262 25.5833 30.6825 25.599H30.6825ZM54.7846 67.439C55.4848 67.0333 56.3809 67.2715 56.7866 67.9708C57.1924 68.6705 56.9544 69.5669 56.2548 69.9728L56.1984 70.0053C55.9671 70.1395 55.7139 70.2035 55.4646 70.2035C54.9595 70.2035 54.4681 69.9419 54.1963 69.4736C53.7906 68.7738 54.0286 67.8775 54.7282 67.4716L54.7846 67.439ZM60.0617 50.4308L59.357 47.7745C59.2031 47.1944 58.7109 46.7669 58.1151 46.6957C57.5186 46.626 56.9402 46.9243 56.6538 47.4518C56.4932 47.7477 56.3487 48.0611 56.2089 48.3642C55.9738 48.8741 55.7306 49.4015 55.4777 49.6925C55.3356 49.856 54.9705 50.0322 54.6178 50.2024C53.7745 50.6094 52.6194 51.1668 52.1782 52.5733C51.9043 53.4458 52.0065 54.136 52.0813 54.6399C52.1459 55.0769 52.1608 55.2284 52.0438 55.5032L52.0291 55.5373C51.5628 56.6314 50.6954 58.6683 51.9118 60.3999C52.7797 61.6356 53.6923 61.9533 54.4014 61.9533C54.5399 61.9538 54.6708 61.9416 54.792 61.9218C56.2861 61.6777 57.4093 60.1234 58.3272 57.0303L60.0502 51.2235C60.1268 50.9652 60.1309 50.691 60.0617 50.4308ZM55.519 56.1969C55.0511 57.774 54.6371 58.5102 54.3982 58.8366C54.3707 58.8014 54.3408 58.7616 54.3088 58.716C54.029 58.3173 54.4472 57.3355 54.724 56.6855L54.7241 56.6853L54.7389 56.651C55.1851 55.6038 55.0662 54.7994 54.9794 54.2118L54.9792 54.2106C54.9234 53.8343 54.9034 53.6725 54.9733 53.4503C55.0307 53.2677 55.3739 53.0904 55.891 52.8408L55.8964 52.8382C56.1242 52.7281 56.3747 52.6072 56.6274 52.461L55.519 56.1969ZM39.4562 17.3759L39.555 17.4105C40.3184 17.6781 40.7202 18.514 40.4524 19.2774C40.2409 19.8802 39.6749 20.2577 39.0702 20.2577C38.9092 20.2577 38.7457 20.2311 38.5853 20.1748L38.4866 20.1402C37.7232 19.8725 37.3214 19.0368 37.5892 18.2733C37.857 17.51 38.6934 17.1087 39.4562 17.3759Z" fill="#8844EE"/>
</svg>
